<?xml version="1.0" encoding="UTF-8" standalone="no"?>
<svg
   xmlns:dc="http://purl.org/dc/elements/1.1/"
   xmlns:cc="http://creativecommons.org/ns#"
   xmlns:rdf="http://www.w3.org/1999/02/22-rdf-syntax-ns#"
   xmlns:svg="http://www.w3.org/2000/svg"
   xmlns="http://www.w3.org/2000/svg"
   xmlns:sodipodi="http://sodipodi.sourceforge.net/DTD/sodipodi-0.dtd"
   xmlns:inkscape="http://www.inkscape.org/namespaces/inkscape"
   width="300"
   height="350"
   id="svg3775"
   version="1.1"
   inkscape:version="1.0.2-2 (e86c870879, 2021-01-15)"
   sodipodi:docname="chapter.svg"
   inkscape:export-filename="C:\Private\gduffner\dev\gitprojekte\wu-bib-icons\png\300x350\chapter.png"
   inkscape:export-xdpi="57.599998"
   inkscape:export-ydpi="57.599998">
  <defs
     id="defs3777" />
  <sodipodi:namedview
     id="base"
     pagecolor="#ffffff"
     bordercolor="#666666"
     borderopacity="1.0"
     inkscape:pageopacity="0.0"
     inkscape:pageshadow="2"
     inkscape:zoom="3.6881202"
     inkscape:cx="159.50252"
     inkscape:cy="173.97966"
     inkscape:document-units="px"
     inkscape:current-layer="layer1"
     showgrid="true"
     inkscape:window-width="1920"
     inkscape:window-height="1013"
     inkscape:window-x="-9"
     inkscape:window-y="-9"
     inkscape:window-maximized="1"
     guidecolor="#f5833f"
     guideopacity="0.49803922"
     inkscape:document-rotation="0"
     inkscape:pagecheckerboard="true">
    <inkscape:grid
       type="xygrid"
       id="grid3783"
       empspacing="10"
       visible="true"
       enabled="true"
       snapvisiblegridlinesonly="true"
       spacingx="5"
       spacingy="5"
       originx="0"
       originy="0" />
    <sodipodi:guide
       position="0,315"
       orientation="0,190"
       id="guide3787" />
    <sodipodi:guide
       position="10,190"
       orientation="190,0"
       id="guide3791" />
    <sodipodi:guide
       position="290,300"
       orientation="190,0"
       id="guide3795" />
    <sodipodi:guide
       position="0,35"
       orientation="0,-190"
       id="guide3799" />
    <sodipodi:guide
       position="150,300"
       orientation="189.80829,0"
       id="guide5285" />
    <sodipodi:guide
       position="0,150"
       orientation="0,190"
       id="guide5289" />
  </sodipodi:namedview>
  <metadata
     id="metadata3780">
    <rdf:RDF>
      <cc:Work
         rdf:about="">
        <dc:format>image/svg+xml</dc:format>
        <dc:type
           rdf:resource="http://purl.org/dc/dcmitype/StillImage" />
        <dc:title></dc:title>
      </cc:Work>
    </rdf:RDF>
  </metadata>
  <g
     inkscape:label="Ebene 1"
     inkscape:groupmode="layer"
     id="layer1"
     transform="translate(0,-862.36218)">
    <path
       id="rect843"
       style="fill:#ffffff;stroke-width:10;stroke-linejoin:round"
       d="M 25,937.36216 H 40 V 1097.3622 H 260 V 937.36216 h 15 V 1112.3622 H 175 c 0,10 -14.32813,15 -25,15 -10.67187,0 -25,-5 -25,-15 H 25 Z"
       sodipodi:nodetypes="ccccccccsccc" />
    <path
       style="fill:#008198;fill-opacity:1;stroke:none;stroke-width:1"
       d="m 9.9999994,937.36218 6e-7,190.00002 105,0 c 0,0 7.43474,15 35,15 27.56525,0 35,-15 35,-15 l 105,0 -10e-6,-190.00002 H 275 v 175.00002 l -100,0 c 0,0 -5.36501,15 -25,15 -19.635,0 -25,-15 -25,-15 l -100,0 V 937.36218 Z"
       id="rect2991"
       inkscape:connector-curvature="0"
       sodipodi:nodetypes="cccsccccccscccc" />
    <path
       style="color:#000000;display:inline;overflow:visible;visibility:visible;fill:#808080;fill-opacity:1;stroke:none;stroke-width:10;marker:none;enable-background:accumulate"
       d="M 40,927.36218 V 1097.362 c 0,0 74.97745,0.4126 75,0 15,2e-4 25,5.0002 25,15.0002 h 10 V 952.06788 c 0,-13.64468 -15,-24.7057 -35,-24.7057 z"
       id="rect2989"
       inkscape:connector-curvature="0"
       sodipodi:nodetypes="cccccccc" />
    <path
       sodipodi:nodetypes="ccccccc"
       inkscape:connector-curvature="0"
       id="path3769"
       d="m 55,942.36218 v 140.00002 h 60 c 15,0 30,5 30,15 V 967.36218 c -0.0603,-13.64455 -15,-25 -30,-25 z"
       style="color:#000000;display:inline;overflow:visible;visibility:visible;fill:#ffffff;fill-opacity:1;stroke:none;stroke-width:10;marker:none;enable-background:accumulate" />
    <path
       style="color:#000000;display:inline;overflow:visible;visibility:visible;fill:#808080;fill-opacity:1;stroke:none;stroke-width:10;marker:none;enable-background:accumulate"
       d="M 260,927.36218 V 1097.362 c 0,0 -74.97745,0.4126 -75,0 -15,2e-4 -25,5.0002 -25,15.0002 H 150 V 952.06788 c 0,-13.64468 15,-24.7057 35,-24.7057 z"
       id="rect2989-6"
       inkscape:connector-curvature="0"
       sodipodi:nodetypes="cccccccc" />
    <path
       sodipodi:nodetypes="ccccccc"
       inkscape:connector-curvature="0"
       id="path3769-5"
       d="m 245,942.36218 v 140.00002 h -60 c -15,0 -30,5 -30,15 v -130 c 0.0603,-13.64457 15,-25.00002 30,-25.00002 z"
       style="color:#000000;display:inline;overflow:visible;visibility:visible;fill:#ffffff;fill-opacity:1;stroke:none;stroke-width:10;marker:none;enable-background:accumulate" />
    <g
       style="font-style:normal;font-variant:normal;font-weight:bold;font-stretch:normal;font-size:56px;line-height:125%;font-family:Verdana;-inkscape-font-specification:'Verdana Bold';letter-spacing:0px;word-spacing:0px;fill:#808080;fill-opacity:1;stroke:none;stroke-width:0.666667"
       id="text3027"
       transform="matrix(1.5,0,0,1.5,5,-371.18137)">
      <path
         d="M 80,942.36187 H 50 v -4.99985 l 10,6.9e-4 v -25.00034 l -10,-5.7e-4 v -4.99962 c 5,0 10,0 10,-5 l 10,-10e-5 v 35.00005 l 10,-1.1e-4 z"
         id="path3051"
         inkscape:connector-curvature="0"
         sodipodi:nodetypes="cccccccccccc"
         style="stroke-width:0.666667" />
    </g>
    <rect
       style="color:#000000;display:inline;overflow:visible;visibility:visible;fill:#808080;fill-opacity:1;stroke:none;stroke-width:9.99996;marker:none;enable-background:accumulate"
       id="rect3799"
       width="50"
       height="9.9999971"
       x="175"
       y="967.36218" />
    <rect
       style="color:#000000;display:inline;overflow:visible;visibility:visible;fill:#808080;fill-opacity:1;stroke:none;stroke-width:9.99996;marker:none;enable-background:accumulate"
       id="rect3799-4"
       width="50"
       height="9.9999971"
       x="175"
       y="987.36218" />
    <rect
       style="color:#000000;display:inline;overflow:visible;visibility:visible;fill:#808080;fill-opacity:1;stroke:none;stroke-width:9.99996;marker:none;enable-background:accumulate"
       id="rect3799-6"
       width="50"
       height="9.9999971"
       x="175"
       y="1007.3622" />
    <rect
       style="color:#000000;display:inline;overflow:visible;visibility:visible;fill:#808080;fill-opacity:1;stroke:none;stroke-width:9.99996;marker:none;enable-background:accumulate"
       id="rect3799-65"
       width="50"
       height="10.000003"
       x="175"
       y="1047.3622" />
    <rect
       style="color:#000000;display:inline;overflow:visible;visibility:visible;fill:#808080;fill-opacity:1;stroke:none;stroke-width:9.99996;marker:none;enable-background:accumulate"
       id="rect3799-6-3"
       width="50"
       height="9.9999971"
       x="175"
       y="1027.3622" />
  </g>
</svg>
