<?xml version="1.0" encoding="UTF-8" standalone="no"?>
<svg
   xmlns:dc="http://purl.org/dc/elements/1.1/"
   xmlns:cc="http://creativecommons.org/ns#"
   xmlns:rdf="http://www.w3.org/1999/02/22-rdf-syntax-ns#"
   xmlns:svg="http://www.w3.org/2000/svg"
   xmlns="http://www.w3.org/2000/svg"
   xmlns:sodipodi="http://sodipodi.sourceforge.net/DTD/sodipodi-0.dtd"
   xmlns:inkscape="http://www.inkscape.org/namespaces/inkscape"
   width="300"
   height="350"
   id="svg3775"
   version="1.1"
   inkscape:version="1.0.2-2 (e86c870879, 2021-01-15)"
   sodipodi:docname="ebook_2.svg"
   inkscape:export-filename="C:\Private\gduffner\dev\gitprojekte\wu-bib-icons\png\300x350\book.png"
   inkscape:export-xdpi="57.599998"
   inkscape:export-ydpi="57.599998">
  <defs
     id="defs3777">
    <rect
       x="60"
       y="1027.3622"
       width="50"
       height="50"
       id="rect871" />
  </defs>
  <sodipodi:namedview
     id="base"
     pagecolor="#ffffff"
     bordercolor="#666666"
     borderopacity="1.0"
     inkscape:pageopacity="0.0"
     inkscape:pageshadow="2"
     inkscape:zoom="3.6881202"
     inkscape:cx="159.50252"
     inkscape:cy="176.30053"
     inkscape:document-units="px"
     inkscape:current-layer="layer1"
     showgrid="true"
     inkscape:window-width="1920"
     inkscape:window-height="1147"
     inkscape:window-x="-8"
     inkscape:window-y="-8"
     inkscape:window-maximized="1"
     guidecolor="#f5833f"
     guideopacity="0.49803922"
     inkscape:document-rotation="0"
     inkscape:pagecheckerboard="true">
    <inkscape:grid
       type="xygrid"
       id="grid3783"
       empspacing="10"
       visible="true"
       enabled="true"
       snapvisiblegridlinesonly="true"
       spacingx="5"
       spacingy="5"
       originx="0"
       originy="0" />
    <sodipodi:guide
       position="0,315"
       orientation="0,190"
       id="guide3787" />
    <sodipodi:guide
       position="10,190"
       orientation="190,0"
       id="guide3791" />
    <sodipodi:guide
       position="290,300"
       orientation="190,0"
       id="guide3795" />
    <sodipodi:guide
       position="0,35"
       orientation="0,-190"
       id="guide3799" />
    <sodipodi:guide
       position="150,300"
       orientation="189.80829,0"
       id="guide5285" />
    <sodipodi:guide
       position="0,150"
       orientation="0,190"
       id="guide5289" />
  </sodipodi:namedview>
  <metadata
     id="metadata3780">
    <rdf:RDF>
      <cc:Work
         rdf:about="">
        <dc:format>image/svg+xml</dc:format>
        <dc:type
           rdf:resource="http://purl.org/dc/dcmitype/StillImage" />
        <dc:title />
      </cc:Work>
    </rdf:RDF>
  </metadata>
  <g
     inkscape:label="Ebene 1"
     inkscape:groupmode="layer"
     id="layer1"
     transform="translate(0,-862.36218)"
     style="display:inline">
    <path
       id="rect843"
       style="fill:#ffffff;stroke-width:10;stroke-linejoin:round"
       d="M 25,937.36218 H 40 V 1097.3622 H 260 V 937.36218 h 15 V 1112.3622 H 175 c 0,10 -14.32813,15 -25,15 -10.67187,0 -25,-5 -25,-15 H 25 Z"
       sodipodi:nodetypes="ccccccccsccc" />
    <path
       style="fill:#008198;fill-opacity:1;stroke:none;stroke-width:1"
       d="M 9.9999994,937.36218 10,1127.3622 h 105 c 0,0 7.43474,15 35,15 27.56525,0 35,-15 35,-15 h 105 l -10e-6,-190.00002 H 275 V 1112.3622 H 175 c 0,0 -5.36501,15 -25,15 -19.635,0 -25,-15 -25,-15 H 25 V 937.36218 Z"
       id="rect2991"
       inkscape:connector-curvature="0"
       sodipodi:nodetypes="cccsccccccscccc" />
    <path
       style="color:#000000;display:inline;overflow:visible;visibility:visible;fill:#808080;fill-opacity:1;stroke:none;stroke-width:10;marker:none;enable-background:accumulate"
       d="M 40,927.36218 V 1097.362 c 0,0 74.97745,0.4126 75,0 15,2e-4 25,5.0002 25,15.0002 h 10 V 952.06788 c 0,-13.64468 -15,-24.7057 -35,-24.7057 z"
       id="rect2989"
       inkscape:connector-curvature="0"
       sodipodi:nodetypes="cccccccc" />
    <path
       sodipodi:nodetypes="ccccccc"
       inkscape:connector-curvature="0"
       id="path3769"
       d="m 55,942.36218 v 140.00002 h 60 c 15,0 30,5 30,15 V 967.36218 c -0.0603,-13.64455 -15,-25 -30,-25 z"
       style="color:#000000;display:inline;overflow:visible;visibility:visible;fill:#ffffff;fill-opacity:1;stroke:none;stroke-width:10;marker:none;enable-background:accumulate" />
    <path
       style="color:#000000;display:inline;overflow:visible;visibility:visible;fill:#808080;fill-opacity:1;stroke:none;stroke-width:10;marker:none;enable-background:accumulate"
       d="M 260,927.36218 V 1097.362 c 0,0 -74.97745,0.4126 -75,0 -15,2e-4 -25,5.0002 -25,15.0002 H 150 V 952.06788 c 0,-13.64468 15,-24.7057 35,-24.7057 z"
       id="rect2989-6"
       inkscape:connector-curvature="0"
       sodipodi:nodetypes="cccccccc" />
    <path
       sodipodi:nodetypes="ccccccc"
       inkscape:connector-curvature="0"
       id="path3769-5"
       d="m 245,942.36218 v 140.00002 h -60 c -15,0 -30,5 -30,15 v -130 c 0.0603,-13.64457 15,-25.00002 30,-25.00002 z"
       style="color:#000000;display:inline;overflow:visible;visibility:visible;fill:#ffffff;fill-opacity:1;stroke:none;stroke-width:10;marker:none;enable-background:accumulate" />
    <text
       xml:space="preserve"
       id="text869"
       style="font-style:normal;font-weight:normal;font-size:40px;line-height:1.25;font-family:sans-serif;white-space:pre;shape-inside:url(#rect871);fill:#000000;fill-opacity:1;stroke:none;"><tspan
         style="visibility:hidden"
         x="60"
         y="1149.6947"><tspan
           style="font-style:italic;font-variant:normal;font-weight:normal;font-stretch:normal;font-size:80px;font-family:'Fira Sans';-inkscape-font-specification:'Fira Sans Italic'">e</tspan></tspan></text>
    <circle
       style="fill:#ffffff;fill-opacity:1;stroke-width:0.999996;stroke-linejoin:round"
       id="path1472"
       cx="45"
       cy="1107.3622"
       r="45" />
    <g
       aria-label="e"
       id="text877"
       style="font-style:italic;font-variant:normal;font-weight:600;font-stretch:normal;font-size:96px;line-height:1.25;font-family:'Fira Sans';-inkscape-font-specification:'Fira Sans, Semi-Bold Italic';font-variant-ligatures:normal;font-variant-caps:normal;font-variant-numeric:normal;font-variant-east-asian:normal;fill:#d42066;fill-opacity:1;stroke:none">
      <path
         d="m 66.368001,1096.0902 q 0,9.696 -9.024,14.208 -8.928,4.416 -23.712,5.856 0.48,9.888 9.504,9.888 3.36,0 6.432,-1.152 3.072,-1.152 6.72,-3.552 l 4.992,8.256 q -9.312,6.72 -19.776,6.72 -10.464,0 -16.032,-5.664 -5.472,-5.76 -5.472,-15.648 0,-7.68 2.88,-15.168 2.88,-7.488 9.216,-12.48 6.336,-4.992 16.128,-4.992 8.64,0 13.344,3.936 4.8,3.84 4.8,9.792 z m -32.064,11.424 q 9.504,-0.768 13.92,-3.552 4.512,-2.88 4.512,-7.296 0,-2.016 -1.344,-3.456 -1.248,-1.44 -4.128,-1.44 -5.472,0 -8.64,4.512 -3.168,4.512 -4.32,11.232 z"
         style="font-style:italic;font-variant:normal;font-weight:600;font-stretch:normal;font-size:96px;font-family:'Fira Sans';-inkscape-font-specification:'Fira Sans, Semi-Bold Italic';font-variant-ligatures:normal;font-variant-caps:normal;font-variant-numeric:normal;font-variant-east-asian:normal;fill:#d42066;fill-opacity:1"
         id="path852" />
    </g>
  </g>
</svg>
