<?xml version="1.0" encoding="UTF-8" standalone="no"?>
<svg
   xmlns:dc="http://purl.org/dc/elements/1.1/"
   xmlns:cc="http://creativecommons.org/ns#"
   xmlns:rdf="http://www.w3.org/1999/02/22-rdf-syntax-ns#"
   xmlns:svg="http://www.w3.org/2000/svg"
   xmlns="http://www.w3.org/2000/svg"
   xmlns:sodipodi="http://sodipodi.sourceforge.net/DTD/sodipodi-0.dtd"
   xmlns:inkscape="http://www.inkscape.org/namespaces/inkscape"
   width="300"
   height="350"
   id="svg3775"
   version="1.1"
   inkscape:version="1.0.2-2 (e86c870879, 2021-01-15)"
   sodipodi:docname="looseleaf.svg"
   inkscape:export-filename="C:\Private\gduffner\dev\gitprojekte\wu-bib-icons\png\300x350\looseleaf.png"
   inkscape:export-xdpi="57.599998"
   inkscape:export-ydpi="57.599998">
  <defs
     id="defs3777" />
  <sodipodi:namedview
     id="base"
     pagecolor="#ffffff"
     bordercolor="#666666"
     borderopacity="1.0"
     inkscape:pageopacity="0.0"
     inkscape:pageshadow="2"
     inkscape:zoom="2.3294118"
     inkscape:cx="148.33944"
     inkscape:cy="170"
     inkscape:document-units="px"
     inkscape:current-layer="layer1"
     showgrid="true"
     inkscape:window-width="1920"
     inkscape:window-height="1013"
     inkscape:window-x="-9"
     inkscape:window-y="-9"
     inkscape:window-maximized="1"
     guidecolor="#f5833f"
     guideopacity="0.49803922"
     inkscape:snap-bbox="true"
     inkscape:bbox-paths="true"
     inkscape:bbox-nodes="true"
     inkscape:snap-bbox-edge-midpoints="true"
     inkscape:object-paths="true"
     inkscape:snap-intersection-paths="true"
     inkscape:object-nodes="true"
     inkscape:snap-smooth-nodes="true"
     showguides="true"
     inkscape:guide-bbox="true"
     inkscape:document-rotation="0"
     inkscape:pagecheckerboard="true">
    <inkscape:grid
       type="xygrid"
       id="grid3783"
       empspacing="10"
       visible="true"
       enabled="true"
       snapvisiblegridlinesonly="true"
       spacingx="5"
       spacingy="5"
       originx="0"
       originy="0" />
    <sodipodi:guide
       position="0,305"
       orientation="0,190"
       id="guide3787"
       inkscape:locked="false" />
    <sodipodi:guide
       position="20,340"
       orientation="190,0"
       id="guide3791"
       inkscape:locked="false" />
    <sodipodi:guide
       position="280,340"
       orientation="190,0"
       id="guide3795"
       inkscape:locked="false" />
    <sodipodi:guide
       position="0,25"
       orientation="0,-190"
       id="guide3799"
       inkscape:locked="false" />
    <sodipodi:guide
       position="150,340"
       orientation="189.80829,0"
       id="guide5285"
       inkscape:locked="false" />
    <sodipodi:guide
       position="0,100"
       orientation="0,190"
       id="guide5289"
       inkscape:locked="false" />
    <sodipodi:guide
       position="0,165"
       orientation="0,1"
       id="guide5513"
       inkscape:locked="false" />
    <sodipodi:guide
       position="150,55"
       orientation="0,1"
       id="guide5515"
       inkscape:locked="false" />
  </sodipodi:namedview>
  <metadata
     id="metadata3780">
    <rdf:RDF>
      <cc:Work
         rdf:about="">
        <dc:format>image/svg+xml</dc:format>
        <dc:type
           rdf:resource="http://purl.org/dc/dcmitype/StillImage" />
        <dc:title />
      </cc:Work>
    </rdf:RDF>
  </metadata>
  <g
     inkscape:label="Ebene 1"
     inkscape:groupmode="layer"
     id="layer1"
     transform="translate(0,-712.36218)">
    <rect
       style="fill:#ffffff;stroke-width:10;stroke-linejoin:round"
       id="rect854"
       width="20"
       height="215"
       x="140"
       y="777.36218" />
    <rect
       style="fill:#ffffff;fill-opacity:1;stroke:#808080;stroke-width:15;stroke-miterlimit:4;stroke-dasharray:none;stroke-opacity:1"
       id="rect5414"
       width="110"
       height="200"
       x="22.5"
       y="784.86218" />
    <rect
       style="fill:#ffffff;fill-opacity:1;stroke:#808080;stroke-width:15;stroke-miterlimit:4;stroke-dasharray:none;stroke-opacity:1"
       id="rect5414-3"
       width="110"
       height="200"
       x="167.5"
       y="784.86218" />
    <g
       id="g6038"
       transform="translate(0,39.999998)">
      <path
         inkscape:connector-curvature="0"
         id="path5974-6"
         d="m 150,752.36218 c -9.185,0 -17.58073,2.42882 -23.98633,6.69922 C 119.60807,763.3318 115,769.81268 115,777.36218 a 5.0005,5.0005 0 1 0 10,0 c 0,-3.4962 2.10828,-7.01229 6.56055,-9.98047 4.45226,-2.96818 11.05591,-5.01953 18.43945,-5.01953 7.38354,0 13.98719,2.05135 18.43945,5.01953 4.45227,2.96818 6.56055,6.48427 6.56055,9.98047 a 5.0005,5.0005 0 1 0 10,0 c 0,-7.5495 -4.60807,-14.03038 -11.01367,-18.30078 C 167.58073,754.791 159.185,752.36218 150,752.36218 Z"
         style="color:#000000;font-style:normal;font-variant:normal;font-weight:normal;font-stretch:normal;font-size:medium;line-height:normal;font-family:sans-serif;font-variant-ligatures:normal;font-variant-position:normal;font-variant-caps:normal;font-variant-numeric:normal;font-variant-alternates:normal;font-feature-settings:normal;text-indent:0;text-align:start;text-decoration:none;text-decoration-line:none;text-decoration-style:solid;text-decoration-color:#000000;letter-spacing:normal;word-spacing:normal;text-transform:none;writing-mode:lr-tb;direction:ltr;text-orientation:mixed;dominant-baseline:auto;baseline-shift:baseline;text-anchor:start;white-space:normal;shape-padding:0;clip-rule:nonzero;display:inline;overflow:visible;visibility:visible;opacity:1;isolation:auto;mix-blend-mode:normal;color-interpolation:sRGB;color-interpolation-filters:linearRGB;solid-color:#000000;solid-opacity:1;vector-effect:none;fill:#008198;fill-opacity:1;fill-rule:nonzero;stroke:#ffffff;stroke-width:15;stroke-linecap:round;stroke-linejoin:miter;stroke-miterlimit:4;stroke-dasharray:none;stroke-dashoffset:0;stroke-opacity:1;color-rendering:auto;image-rendering:auto;shape-rendering:auto;text-rendering:auto;enable-background:accumulate" />
      <path
         inkscape:connector-curvature="0"
         id="path5974"
         d="m 150,752.36133 c -9.185,0 -17.58073,2.42882 -23.98633,6.69922 C 119.60807,763.33095 115,769.81183 115,777.36133 a 5.0005,5.0005 0 1 0 10,0 c 0,-3.4962 2.10828,-7.01229 6.56055,-9.98047 4.45226,-2.96818 11.05591,-5.01953 18.43945,-5.01953 7.38354,0 13.98719,2.05135 18.43945,5.01953 4.45227,2.96818 6.56055,6.48427 6.56055,9.98047 a 5.0005,5.0005 0 1 0 10,0 c 0,-7.5495 -4.60807,-14.03038 -11.01367,-18.30078 -6.4056,-4.2704 -14.80133,-6.69922 -23.98633,-6.69922 z"
         style="color:#000000;font-style:normal;font-variant:normal;font-weight:normal;font-stretch:normal;font-size:medium;line-height:normal;font-family:sans-serif;font-variant-ligatures:normal;font-variant-position:normal;font-variant-caps:normal;font-variant-numeric:normal;font-variant-alternates:normal;font-feature-settings:normal;text-indent:0;text-align:start;text-decoration:none;text-decoration-line:none;text-decoration-style:solid;text-decoration-color:#000000;letter-spacing:normal;word-spacing:normal;text-transform:none;writing-mode:lr-tb;direction:ltr;text-orientation:mixed;dominant-baseline:auto;baseline-shift:baseline;text-anchor:start;white-space:normal;shape-padding:0;clip-rule:nonzero;display:inline;overflow:visible;visibility:visible;opacity:1;isolation:auto;mix-blend-mode:normal;color-interpolation:sRGB;color-interpolation-filters:linearRGB;solid-color:#000000;solid-opacity:1;vector-effect:none;fill:#008198;fill-opacity:1;fill-rule:nonzero;stroke:none;stroke-width:10;stroke-linecap:round;stroke-linejoin:miter;stroke-miterlimit:4;stroke-dasharray:none;stroke-dashoffset:0;stroke-opacity:1;color-rendering:auto;image-rendering:auto;shape-rendering:auto;text-rendering:auto;enable-background:accumulate" />
    </g>
    <g
       id="g6042"
       transform="translate(0,48.333631)">
      <path
         inkscape:connector-curvature="0"
         id="path5974-6-3"
         d="m 150,792.36218 c -9.185,0 -17.58073,2.42882 -23.98633,6.69922 C 119.60807,803.3318 115,809.81268 115,817.36218 a 5.0005,5.0005 0 1 0 10,0 c 0,-3.4962 2.10828,-7.01229 6.56055,-9.98047 4.45226,-2.96818 11.05591,-5.01953 18.43945,-5.01953 7.38354,0 13.98719,2.05135 18.43945,5.01953 4.45227,2.96818 6.56055,6.48427 6.56055,9.98047 a 5.0005,5.0005 0 1 0 10,0 c 0,-7.5495 -4.60807,-14.03038 -11.01367,-18.30078 C 167.58073,794.791 159.185,792.36218 150,792.36218 Z"
         style="color:#000000;font-style:normal;font-variant:normal;font-weight:normal;font-stretch:normal;font-size:medium;line-height:normal;font-family:sans-serif;font-variant-ligatures:normal;font-variant-position:normal;font-variant-caps:normal;font-variant-numeric:normal;font-variant-alternates:normal;font-feature-settings:normal;text-indent:0;text-align:start;text-decoration:none;text-decoration-line:none;text-decoration-style:solid;text-decoration-color:#000000;letter-spacing:normal;word-spacing:normal;text-transform:none;writing-mode:lr-tb;direction:ltr;text-orientation:mixed;dominant-baseline:auto;baseline-shift:baseline;text-anchor:start;white-space:normal;shape-padding:0;clip-rule:nonzero;display:inline;overflow:visible;visibility:visible;opacity:1;isolation:auto;mix-blend-mode:normal;color-interpolation:sRGB;color-interpolation-filters:linearRGB;solid-color:#000000;solid-opacity:1;vector-effect:none;fill:#008198;fill-opacity:1;fill-rule:nonzero;stroke:#ffffff;stroke-width:15;stroke-linecap:round;stroke-linejoin:miter;stroke-miterlimit:4;stroke-dasharray:none;stroke-dashoffset:0;stroke-opacity:1;color-rendering:auto;image-rendering:auto;shape-rendering:auto;text-rendering:auto;enable-background:accumulate" />
      <path
         inkscape:connector-curvature="0"
         id="path5974-5"
         d="m 150,792.36133 c -9.185,0 -17.58073,2.42882 -23.98633,6.69922 C 119.60807,803.33095 115,809.81183 115,817.36133 a 5.0005,5.0005 0 1 0 10,0 c 0,-3.4962 2.10828,-7.01229 6.56055,-9.98047 4.45226,-2.96818 11.05591,-5.01953 18.43945,-5.01953 7.38354,0 13.98719,2.05135 18.43945,5.01953 4.45227,2.96818 6.56055,6.48427 6.56055,9.98047 a 5.0005,5.0005 0 1 0 10,0 c 0,-7.5495 -4.60807,-14.03038 -11.01367,-18.30078 -6.4056,-4.2704 -14.80133,-6.69922 -23.98633,-6.69922 z"
         style="color:#000000;font-style:normal;font-variant:normal;font-weight:normal;font-stretch:normal;font-size:medium;line-height:normal;font-family:sans-serif;font-variant-ligatures:normal;font-variant-position:normal;font-variant-caps:normal;font-variant-numeric:normal;font-variant-alternates:normal;font-feature-settings:normal;text-indent:0;text-align:start;text-decoration:none;text-decoration-line:none;text-decoration-style:solid;text-decoration-color:#000000;letter-spacing:normal;word-spacing:normal;text-transform:none;writing-mode:lr-tb;direction:ltr;text-orientation:mixed;dominant-baseline:auto;baseline-shift:baseline;text-anchor:start;white-space:normal;shape-padding:0;clip-rule:nonzero;display:inline;overflow:visible;visibility:visible;opacity:1;isolation:auto;mix-blend-mode:normal;color-interpolation:sRGB;color-interpolation-filters:linearRGB;solid-color:#000000;solid-opacity:1;vector-effect:none;fill:#008198;fill-opacity:1;fill-rule:nonzero;stroke:none;stroke-width:10;stroke-linecap:round;stroke-linejoin:miter;stroke-miterlimit:4;stroke-dasharray:none;stroke-dashoffset:0;stroke-opacity:1;color-rendering:auto;image-rendering:auto;shape-rendering:auto;text-rendering:auto;enable-background:accumulate" />
    </g>
    <g
       id="g6046"
       transform="translate(0,44.167265)">
      <path
         inkscape:connector-curvature="0"
         id="path5974-6-5"
         d="m 150,844.86218 c -9.185,0 -17.58073,2.42882 -23.98633,6.69922 C 119.60807,855.8318 115,862.31268 115,869.86218 a 5.0005,5.0005 0 1 0 10,0 c 0,-3.4962 2.10828,-7.01229 6.56055,-9.98047 4.45226,-2.96818 11.05591,-5.01953 18.43945,-5.01953 7.38354,0 13.98719,2.05135 18.43945,5.01953 4.45227,2.96818 6.56055,6.48427 6.56055,9.98047 a 5.0005,5.0005 0 1 0 10,0 c 0,-7.5495 -4.60807,-14.03038 -11.01367,-18.30078 C 167.58073,847.291 159.185,844.86218 150,844.86218 Z"
         style="color:#000000;font-style:normal;font-variant:normal;font-weight:normal;font-stretch:normal;font-size:medium;line-height:normal;font-family:sans-serif;font-variant-ligatures:normal;font-variant-position:normal;font-variant-caps:normal;font-variant-numeric:normal;font-variant-alternates:normal;font-feature-settings:normal;text-indent:0;text-align:start;text-decoration:none;text-decoration-line:none;text-decoration-style:solid;text-decoration-color:#000000;letter-spacing:normal;word-spacing:normal;text-transform:none;writing-mode:lr-tb;direction:ltr;text-orientation:mixed;dominant-baseline:auto;baseline-shift:baseline;text-anchor:start;white-space:normal;shape-padding:0;clip-rule:nonzero;display:inline;overflow:visible;visibility:visible;opacity:1;isolation:auto;mix-blend-mode:normal;color-interpolation:sRGB;color-interpolation-filters:linearRGB;solid-color:#000000;solid-opacity:1;vector-effect:none;fill:#008198;fill-opacity:1;fill-rule:nonzero;stroke:#ffffff;stroke-width:15;stroke-linecap:round;stroke-linejoin:miter;stroke-miterlimit:4;stroke-dasharray:none;stroke-dashoffset:0;stroke-opacity:1;color-rendering:auto;image-rendering:auto;shape-rendering:auto;text-rendering:auto;enable-background:accumulate" />
      <path
         inkscape:connector-curvature="0"
         id="path5974-9"
         d="m 150,844.86133 c -9.185,0 -17.58073,2.42882 -23.98633,6.69922 C 119.60807,855.83095 115,862.31183 115,869.86133 a 5.0005,5.0005 0 1 0 10,0 c 0,-3.4962 2.10828,-7.01229 6.56055,-9.98047 4.45226,-2.96818 11.05591,-5.01953 18.43945,-5.01953 7.38354,0 13.98719,2.05135 18.43945,5.01953 4.45227,2.96818 6.56055,6.48427 6.56055,9.98047 a 5.0005,5.0005 0 1 0 10,0 c 0,-7.5495 -4.60807,-14.03038 -11.01367,-18.30078 -6.4056,-4.2704 -14.80133,-6.69922 -23.98633,-6.69922 z"
         style="color:#000000;font-style:normal;font-variant:normal;font-weight:normal;font-stretch:normal;font-size:medium;line-height:normal;font-family:sans-serif;font-variant-ligatures:normal;font-variant-position:normal;font-variant-caps:normal;font-variant-numeric:normal;font-variant-alternates:normal;font-feature-settings:normal;text-indent:0;text-align:start;text-decoration:none;text-decoration-line:none;text-decoration-style:solid;text-decoration-color:#000000;letter-spacing:normal;word-spacing:normal;text-transform:none;writing-mode:lr-tb;direction:ltr;text-orientation:mixed;dominant-baseline:auto;baseline-shift:baseline;text-anchor:start;white-space:normal;shape-padding:0;clip-rule:nonzero;display:inline;overflow:visible;visibility:visible;opacity:1;isolation:auto;mix-blend-mode:normal;color-interpolation:sRGB;color-interpolation-filters:linearRGB;solid-color:#000000;solid-opacity:1;vector-effect:none;fill:#008198;fill-opacity:1;fill-rule:nonzero;stroke:none;stroke-width:10;stroke-linecap:round;stroke-linejoin:miter;stroke-miterlimit:4;stroke-dasharray:none;stroke-dashoffset:0;stroke-opacity:1;color-rendering:auto;image-rendering:auto;shape-rendering:auto;text-rendering:auto;enable-background:accumulate" />
    </g>
    <g
       id="g6050"
       transform="translate(0,39.999998)">
      <path
         inkscape:connector-curvature="0"
         id="path5974-6-1"
         d="m 150,897.36308 c -9.185,0 -17.58073,2.4288 -23.98633,6.6992 C 119.60807,908.33268 115,914.81358 115,922.36308 a 5.0005,5.0005 0 1 0 10,0 c 0,-3.4962 2.10828,-7.0123 6.56055,-9.9805 4.45226,-2.9682 11.05591,-5.0195 18.43945,-5.0195 7.38354,0 13.98719,2.0513 18.43945,5.0195 4.45227,2.9682 6.56055,6.4843 6.56055,9.9805 a 5.0005,5.0005 0 1 0 10,0 c 0,-7.5495 -4.60807,-14.0304 -11.01367,-18.3008 -6.4056,-4.2704 -14.80133,-6.6992 -23.98633,-6.6992 z"
         style="color:#000000;font-style:normal;font-variant:normal;font-weight:normal;font-stretch:normal;font-size:medium;line-height:normal;font-family:sans-serif;font-variant-ligatures:normal;font-variant-position:normal;font-variant-caps:normal;font-variant-numeric:normal;font-variant-alternates:normal;font-feature-settings:normal;text-indent:0;text-align:start;text-decoration:none;text-decoration-line:none;text-decoration-style:solid;text-decoration-color:#000000;letter-spacing:normal;word-spacing:normal;text-transform:none;writing-mode:lr-tb;direction:ltr;text-orientation:mixed;dominant-baseline:auto;baseline-shift:baseline;text-anchor:start;white-space:normal;shape-padding:0;clip-rule:nonzero;display:inline;overflow:visible;visibility:visible;opacity:1;isolation:auto;mix-blend-mode:normal;color-interpolation:sRGB;color-interpolation-filters:linearRGB;solid-color:#000000;solid-opacity:1;vector-effect:none;fill:#008198;fill-opacity:1;fill-rule:nonzero;stroke:#ffffff;stroke-width:15;stroke-linecap:round;stroke-linejoin:miter;stroke-miterlimit:4;stroke-dasharray:none;stroke-dashoffset:0;stroke-opacity:1;color-rendering:auto;image-rendering:auto;shape-rendering:auto;text-rendering:auto;enable-background:accumulate" />
      <path
         inkscape:connector-curvature="0"
         id="path5974-3"
         d="m 150,897.36218 c -9.185,0 -17.58073,2.4288 -23.98633,6.6993 C 119.60807,908.33188 115,914.81268 115,922.36218 a 5.0005,5.0005 0 1 0 10,0 c 0,-3.4962 2.10828,-7.0123 6.56055,-9.9804 4.45226,-2.9682 11.05591,-5.0196 18.43945,-5.0196 7.38354,0 13.98719,2.0514 18.43945,5.0196 4.45227,2.9681 6.56055,6.4842 6.56055,9.9804 a 5.0005,5.0005 0 1 0 10,0 c 0,-7.5495 -4.60807,-14.0303 -11.01367,-18.3007 -6.4056,-4.2705 -14.80133,-6.6993 -23.98633,-6.6993 z"
         style="color:#000000;font-style:normal;font-variant:normal;font-weight:normal;font-stretch:normal;font-size:medium;line-height:normal;font-family:sans-serif;font-variant-ligatures:normal;font-variant-position:normal;font-variant-caps:normal;font-variant-numeric:normal;font-variant-alternates:normal;font-feature-settings:normal;text-indent:0;text-align:start;text-decoration:none;text-decoration-line:none;text-decoration-style:solid;text-decoration-color:#000000;letter-spacing:normal;word-spacing:normal;text-transform:none;writing-mode:lr-tb;direction:ltr;text-orientation:mixed;dominant-baseline:auto;baseline-shift:baseline;text-anchor:start;white-space:normal;shape-padding:0;clip-rule:nonzero;display:inline;overflow:visible;visibility:visible;opacity:1;isolation:auto;mix-blend-mode:normal;color-interpolation:sRGB;color-interpolation-filters:linearRGB;solid-color:#000000;solid-opacity:1;vector-effect:none;fill:#008198;fill-opacity:1;fill-rule:nonzero;stroke:none;stroke-width:10;stroke-linecap:round;stroke-linejoin:miter;stroke-miterlimit:4;stroke-dasharray:none;stroke-dashoffset:0;stroke-opacity:1;color-rendering:auto;image-rendering:auto;shape-rendering:auto;text-rendering:auto;enable-background:accumulate" />
    </g>
  </g>
</svg>
