<?xml version="1.0" encoding="UTF-8" standalone="no"?>
<svg
   xmlns:dc="http://purl.org/dc/elements/1.1/"
   xmlns:cc="http://creativecommons.org/ns#"
   xmlns:rdf="http://www.w3.org/1999/02/22-rdf-syntax-ns#"
   xmlns:svg="http://www.w3.org/2000/svg"
   xmlns="http://www.w3.org/2000/svg"
   xmlns:sodipodi="http://sodipodi.sourceforge.net/DTD/sodipodi-0.dtd"
   xmlns:inkscape="http://www.inkscape.org/namespaces/inkscape"
   width="300"
   height="350"
   id="svg3775"
   version="1.1"
   inkscape:version="1.0.2-2 (e86c870879, 2021-01-15)"
   sodipodi:docname="map.svg"
   inkscape:export-filename="C:\Private\gduffner\dev\gitprojekte\wu-bib-icons\png\300x350\map.png"
   inkscape:export-xdpi="57.599998"
   inkscape:export-ydpi="57.599998">
  <defs
     id="defs3777" />
  <sodipodi:namedview
     id="base"
     pagecolor="#ffffff"
     bordercolor="#666666"
     borderopacity="1.0"
     inkscape:pageopacity="0.0"
     inkscape:pageshadow="2"
     inkscape:zoom="2.61"
     inkscape:cx="76.650675"
     inkscape:cy="167.46623"
     inkscape:document-units="px"
     inkscape:current-layer="layer1"
     showgrid="true"
     inkscape:window-width="1920"
     inkscape:window-height="1013"
     inkscape:window-x="-9"
     inkscape:window-y="-9"
     inkscape:window-maximized="1"
     guidecolor="#f5833f"
     guideopacity="0.49803922"
     inkscape:snap-bbox="true"
     inkscape:bbox-paths="true"
     inkscape:bbox-nodes="true"
     inkscape:snap-bbox-edge-midpoints="true"
     inkscape:object-paths="true"
     inkscape:snap-intersection-paths="true"
     inkscape:object-nodes="true"
     inkscape:snap-smooth-nodes="true"
     showguides="true"
     inkscape:guide-bbox="true"
     inkscape:document-rotation="0"
     inkscape:pagecheckerboard="true">
    <inkscape:grid
       type="xygrid"
       id="grid3783"
       empspacing="10"
       visible="true"
       enabled="true"
       snapvisiblegridlinesonly="true"
       spacingx="5"
       spacingy="5"
       originx="0"
       originy="0" />
    <sodipodi:guide
       position="0,315"
       orientation="0,190"
       id="guide3787" />
    <sodipodi:guide
       position="10,350"
       orientation="190,0"
       id="guide3791" />
    <sodipodi:guide
       position="290,350"
       orientation="190,0"
       id="guide3795" />
    <sodipodi:guide
       position="0,35"
       orientation="0,-190"
       id="guide3799" />
    <sodipodi:guide
       position="150,350"
       orientation="189.80829,0"
       id="guide5285" />
    <sodipodi:guide
       position="0,100"
       orientation="0,190"
       id="guide5289" />
    <sodipodi:guide
       position="0,175"
       orientation="0,1"
       id="guide5513" />
    <sodipodi:guide
       position="150,55"
       orientation="0,1"
       id="guide5515" />
  </sodipodi:namedview>
  <metadata
     id="metadata3780">
    <rdf:RDF>
      <cc:Work
         rdf:about="">
        <dc:format>image/svg+xml</dc:format>
        <dc:type
           rdf:resource="http://purl.org/dc/dcmitype/StillImage" />
        <dc:title />
      </cc:Work>
    </rdf:RDF>
  </metadata>
  <g
     inkscape:label="Ebene 1"
     inkscape:groupmode="layer"
     id="layer1"
     transform="translate(0,-712.36218)">
    <path
       style="fill:#ffffff;stroke:none;stroke-width:1px;stroke-linecap:butt;stroke-linejoin:miter;stroke-opacity:1;fill-opacity:1"
       d="m 30,797.36218 h 240 v 150 h -35 v 30 c 0,0 -205,0 -205,0 z"
       id="path859" />
    <rect
       style="fill:#808080;fill-opacity:1"
       id="rect4233"
       width="5"
       height="170"
       x="65"
       y="802.36218" />
    <rect
       style="fill:#808080;fill-opacity:1"
       id="rect4233-3"
       width="5"
       height="170"
       x="115"
       y="802.36218" />
    <rect
       style="fill:#808080;fill-opacity:1"
       id="rect4233-8"
       width="5"
       height="170"
       x="165"
       y="802.36218" />
    <rect
       style="fill:#808080;fill-opacity:1"
       id="rect4233-2"
       width="5"
       height="170"
       x="215"
       y="802.36218" />
    <rect
       style="fill:#808080;fill-opacity:1"
       id="rect4268"
       width="230"
       height="5"
       x="35"
       y="832.36218" />
    <rect
       style="fill:#808080;fill-opacity:1"
       id="rect4268-5"
       width="230"
       height="5"
       x="35"
       y="882.36218" />
    <rect
       style="fill:#808080;fill-opacity:1"
       id="rect4268-2"
       width="230"
       height="5"
       x="35"
       y="932.36218" />
    <g
       id="g27967"
       style="fill:#808080;fill-opacity:1;stroke:#c8c8c8;stroke-opacity:1"
       transform="matrix(0.12,0,0,0.12,37.624995,648.60151)">
      <path
         id="path27963"
         d="m 1696.1377,1701.2802 c -2.1315,0.1889 -4.6931,0.6731 -5.9,2.6 -2.0882,0.6067 -2.7286,-3.2028 -3.8708,-1.8293 -0.5818,1.2952 -3.7403,1.0886 -2.945,3.3913 1.065,1.3833 0.5021,3.1102 1.1158,4.3542 1.4765,2.2183 -2.8601,0.1325 -2.2284,2.8727 -0.9438,1.3185 2.3692,4.2148 -0.011,4.4452 -2.4368,-0.4474 -2.9285,1.5389 -2.2241,2.9413 -1.5464,0.978 -3.1962,-1.3627 -5.0071,-0.9602 0.8034,-2.369 -4.7903,-3.773 -3.0297,-1.7152 1.5221,1.8873 -2.3612,2.1441 -3.4798,3.1899 -0.6047,1.6301 -2.0073,1.9062 -3.8163,1.2211 -0.9339,1.3125 -3.8128,3.9402 -5.7178,2.2642 -1.6465,-0.1852 -3.4775,0.6189 -4.2588,2.0449 -1.3867,1.3795 3.9617,0.7603 1.4364,2.8151 -2.1383,1.0269 -1.7128,3.1091 -4.5876,2.7608 -1.0684,0.076 -5.5355,1.0069 -2.2762,1.304 -0.5952,1.3991 -1.1652,2.5266 -2.4924,3.6373 -2.2792,-0.5204 -0.4594,3.1859 -2.7724,2.5627 -1.5614,0.6439 -3.6525,1.0748 -4.5351,-1.1 1.1377,-1.8235 0.3542,-3.5776 -1.7178,-3.6293 -1.9751,-2.1702 -3.9171,-4.352 -6.6139,-5.623 -1.8314,-1.9769 -1.7932,1.4986 -2.6602,2.5544 -0.6395,1.8036 -1.8986,3.1755 -2.2608,5.0063 -0.5854,2.3258 -1.1757,5.4332 1.1999,7.0388 0.2525,1.1667 -1.82,0.9205 -2.9272,2.4928 -3.7752,2.1394 3.0081,-0.3299 3.18,1.86 -2.9484,-0.1808 -0.6324,5.3588 1.4,4.1 2.6858,0.836 0.8863,1.989 -0.5,3.4 1.7509,1.4115 0.8029,2.8673 0.135,4.6367 -0.3239,1.5232 -0.076,3.8145 -1.4587,4.6339 -0.6801,1.3227 -2.3714,2.3872 -3.2316,3.5424 -0.1128,2.1924 -3.7315,3.9998 1.1553,4.387 2.9218,1.104 0.2373,7.4368 3.7403,5.6253 2.1086,0.346 4.23,0.5974 6.3596,0.7747 -0.1103,2.1519 -6.3292,0.5578 -3.6853,3.2676 0.3033,1.953 2.5052,3.0226 2.4854,4.9323 1.6842,-0.3641 3.4024,-0.5152 5.1,-0.7999 0.9471,1.6619 -0.104,2.792 -2.0901,3.2279 -1.6199,0.785 -3.9078,0.3738 -4.81,2.2721 1.5341,1.1434 3.394,-0.2027 4.9378,-1.0329 2.9389,-2.949 7.4587,0.4033 10.2516,-2.0933 2.8798,-2.7327 5.6312,2.2143 7.5201,0.8955 1.8304,0.4467 3.8821,-0.01 3.3906,2.6307 0.9854,0.8083 3.6342,4.187 3.8219,1.6767 0.1773,-3.1239 1.7999,-0.305 2.1879,-2.7732 0.7304,-1.4953 1.1093,-4.0202 2.2902,-4.8035 2.5491,1.1259 5.4273,1.4198 7.9167,2.5647 2.4052,1.7353 5.6065,1.7435 8.3833,2.6353 2.6295,-0.4411 4.486,1.763 7.0418,1.9504 1.5604,0.8911 2.3295,3.2241 3.4731,0.6782 2.1582,1.0482 2.7278,-2.3191 4.7296,-0.39 3.183,1.2299 1.9173,-0.3789 1.5311,-2.4842 0.5731,-1.5852 -1.7328,-4.4404 0.043,-5.156 3.2859,0.014 6.4725,0.5221 8.3485,-2.4564 1.6774,-1.014 2.2207,-2.8923 3.942,-4.0022 1.0962,-1.8653 1.525,-2.8864 3.9517,-1.6496 1.4633,-1.4326 2.3983,-1.2895 4.2391,-0.6902 1.9845,-0.7235 4.3487,-1.8449 6.1339,-0.051 3.5077,1.6231 4.9436,6.1564 8.9744,6.8257 3.1432,0.3845 10.0426,5.7838 8.0917,-0.8745 0.9701,-1.3207 0.4665,-3.8087 -0.9589,-4.9473 1.219,-1.1457 1.1563,-4.1289 -1.1023,-3.7497 -1.7106,0.8605 -3.0013,1.9903 -3.5507,-0.051 -1.0266,2.4557 -2.5544,-0.4515 -2.5537,-1.2348 -3.0177,-1.6126 2.1848,-4.7533 -1.3344,-5.0172 1.1088,1.8405 -2.4077,3.306 -2.8,1.1 -0.5119,-1.8446 1.4097,-3.4812 0.4,-4.8 0.8292,-1.9058 1.0393,-3.8185 0.1432,-5.7435 -0.7007,-1.8688 -0.2927,-3.6022 0.7963,-5.2183 0.9498,-1.9305 1.9835,-3.8394 1.7104,-6.0505 0.3869,-2.7189 0.7927,-5.4331 1.8501,-7.9877 -1.8958,0.093 -1.9352,-1.8243 -4.2,-1.7 0.6312,-3.1077 1.97,-6.0287 2.3,-9.2 -1.8147,-0.7627 -3.4339,0.116 -5.1209,0.2798 -2.3866,0.2794 -2.8928,-1.9356 -4.8791,-2.5798 0.085,-1.9529 -2.7797,-2.4776 -1.0189,-4.4709 0.6666,-1.5254 2.5998,-3.5103 0.066,-4.4308 -2.6316,-1.6293 -5.6973,-2.6621 -8.8258,-2.2983 -0.6356,1.3118 0.5292,3.4951 0.4744,5.1688 0.2844,1.4375 -1.0431,4.8002 -2.567,2.5907 -3.4947,-2.6198 -7.0536,-5.1517 -10.6291,-7.6595 -0.2974,-2.5257 0.7308,-5.3827 -0.8,-7.6 -0.043,-1.8946 0.2237,-3.9735 -2.0181,-4.6627 -0.875,-0.6271 -1.8589,-1.0859 -2.7819,-1.6373 z"
         style="fill:#808080;fill-opacity:1;fill-rule:evenodd;stroke:#c8c8c8;stroke-width:3;stroke-linecap:butt;stroke-linejoin:miter;stroke-miterlimit:4;stroke-dasharray:none;stroke-opacity:1"
         inkscape:connector-curvature="0" />
    </g>
    <path
       inkscape:connector-curvature="0"
       id="path1453"
       style="fill:#808080;fill-opacity:1;fill-rule:evenodd;stroke:#ffffff;stroke-width:0.36;stroke-linecap:butt;stroke-linejoin:miter;stroke-miterlimit:4;stroke-dasharray:1.08, 1.08;stroke-dashoffset:0;stroke-opacity:1"
       d="m 54.530044,927.65401 0.05969,-1.85039 -1.014726,-0.59689 -0.119379,-1.43256 1.074415,-0.83566 0.477518,-1.1341 -0.05969,-1.01472 -0.29845,-1.13411 0.11938,-0.53721 0.596898,-1.1341 -0.179069,-1.01472 0.298449,-0.89535 0.835657,-1.25348 0.656587,-1.3132 0.238759,-1.25348 -0.17907,-1.1938 -0.477518,-1.25317 -0.422368,-1.41079 -0.0128,-0.0346 v -0.6566 l 0.417828,-0.5372 0.775968,-0.17908 0.238758,-0.59689 -0.238758,-1.01473 0.716277,-1.31317 -0.298449,-0.95503 -1.313175,-0.35814 -0.775967,1.01472 -1.134106,-0.17907 -0.656587,0.71628 -0.119379,-1.73101 -0.656588,-0.5372 1.014726,-0.6566 -0.179068,-1.13409 -0.477519,-0.65659 -0.895346,-0.29846 v -0.89534 h -0.477519 l -0.835657,0.59689 -0.298448,-0.41783 v -1.01472 l -0.955037,-0.65659 -0.358138,-0.89534 -1.372864,0.65659 -0.656589,-0.83566 -0.716276,0.5969 -1.193796,-0.71628 0.05969,-1.1341 -0.537207,-0.65659 -1.313176,0.0597 -0.537208,1.25348 -0.716277,1.31317 -3.223247,0.17908 -1.313176,-0.11938 -0.417828,1.37286 0.298449,0.59689 0.895346,1.07442 1.671315,0.53721 -0.358139,1.43256 0.895346,1.07442 v 1.01472 l -1.014726,0.35814 -0.835657,0.11937 -0.775967,1.7907 -0.895346,1.07441 -0.835657,1.43256 1.074416,1.01472 -0.417828,0.65659 0.835656,0.95504 -0.11938,1.67131 0.537209,0.53721 0.835656,1.01472 0.17907,0.77597 0.05969,1.13411 -0.596898,1.61162 1.074417,0.17907 1.014726,-0.23875 2.387591,1.19378 h 0.955035 l 1.134106,0.65659 1.313175,0.0597 0.775967,1.1938 -0.477518,0.89534 v 0.53722 l 0.05969,1.19379 0.716277,0.11938 0.716277,1.13411 1.313175,-0.11939 0.596898,0.47753 h 0.656587 l 1.313175,1.13409 0.05969,0.53722 0.955036,0.0597 0.842898,0.60714"
       sodipodi:nodetypes="cccccccccccccccccccccccccccccccccccccccccccccccccccccccccccccccccccccccccccccccccccccccccccccc" />
    <path
       inkscape:connector-curvature="0"
       style="fill:#808080;fill-opacity:1;fill-rule:evenodd;stroke:#ffffff;stroke-width:0.36;stroke-linecap:butt;stroke-linejoin:miter;stroke-miterlimit:4;stroke-dasharray:none;stroke-dashoffset:0;stroke-opacity:1"
       d="m 118.33624,885.78675 -1.07625,0.83626 -1.2525,0.71624 0.77625,1.90876 0.12,2.08874 -1.31625,0.3 -3.40125,-0.41624 -0.41625,0.29624 -0.77625,-0.29624 -4.4775,1.1925 -0.24,0.95624 -1.96875,-0.36 -3.165,0.3 -1.0725,-0.42 -1.372503,1.19626 v 1.60874 l -0.83625,0.95626 -1.96875,0.24 -1.7925,-0.42 -1.5525,1.9125 0.71625,0.17624 -0.17625,0.89626 -1.7325,-0.06 -1.3725,1.25624 -0.18,0.71626 -0.89625,0.71624 -1.0125,-0.18 0.65625,-1.07624 -0.59625,-0.47626 -0.83625,0.18 -1.2525,0.35626 -1.4325,1.5525 -1.7325,-0.18 -1.3125,0.36 -1.3725,-0.77626 0.59625,-0.83624 -2.088742,-2.685 -1.25625,0.12 -0.35625,-0.65626 1.3125,-0.89624 -1.0725,-0.95626 -2.08875,0.83626 h -1.19625 l -0.23625,-0.77626 -1.19625,0.06 -0.83625,-1.01624 -1.66875,0.06 -0.95625,-0.53626 -0.95625,0.89626 -0.06,0.71624 h -1.60875 l -1.25625,-0.83624 0.24,-0.77626 -0.06,-0.53624 -1.6125,0.47624 0.77625,0.95626 -0.59625,0.89624 0.42,0.7725 -0.36,0.71626 1.07625,0.6 0.29625,2.325 -1.3125,1.6125 -0.12,0.89624 -0.59625,-0.06 -0.83625,0.89626 0.3,0.41624 -1.7325,2.20876 h -0.83625 l -0.83625,0.83624 -1.3125,0.53626 -0.89625,-0.18 -0.945,0.29624 -0.0075,0.0638 0.41625,1.4325 0.48,1.3125 0.17625,1.19626 -0.23625,1.2525 -0.65625,1.3125 -0.83625,1.2525 -0.3,0.89624 0.18,1.01626 -0.59625,1.1325 -0.12,0.53624 0.29625,1.13626 0.06,1.0125 -0.47625,1.13624 -1.07625,0.83626 0.12,1.4325 1.01625,0.59624 -0.05625,1.70626 1.36875,0.0225 1.07625,-0.8325 1.2525,-0.36 0.06,-1.1925 0.35625,-1.25626 1.6125,0.3 0.47625,-0.18 -0.17625,-0.71624 0.71625,-0.59626 0.65625,-1.78874 0.47625,0.0562 0.53625,-0.17624 1.3725,0.8925 0.18,0.77624 1.5525,1.25626 -0.71625,1.84874 0.18,0.65626 1.1925,0.83624 2.02875,0.12 1.7925,-0.89624 1.6725,0.06 0.8925,0.89624 1.3725,0.35626 0.18,0.71624 -0.83625,1.07626 0.77625,0.18 0.89625,-0.42 0.59625,0.71624 1.3125,0.12 0.89625,0.59626 2.268742,-0.53626 1.84875,0.41626 0.36,-1.3125 1.1325,-1.0125 v -1.7325 l 0.77625,-0.77626 -0.18,-1.5525 2.38875,-2.805 2.20875,-0.18 2.32875,-0.77624 1.3725,0.24 0.77625,0.53624 1.1925,-0.29624 1.3125,-1.7325 h 0.71625 l 1.01625,0.89624 2.268753,-0.95624 3.045,0.89624 0.65625,0.65626 h 1.1325 l 0.12,-0.77626 1.7925,-0.18 3.52125,-2.02874 3.46125,-0.89626 0.95625,-1.0725 0.65625,-0.14624 v -1.22626 l -0.06,-1.4325 -0.48,-0.53624 -0.8925,-0.36002 -0.12,-1.3725 -0.06,-1.7325 0.41625,-0.77624 -0.35625,-1.4325 0.77625,-0.41626 1.66875,0.12 1.31625,-0.71624 1.72875,-0.77626 1.07625,-0.95624 0.65625,-0.23626 1.4925,1.0125 2.745,-1.0725 -0.06,-0.89624 1.6125,-1.5525 h 1.1925 l 0.77625,-0.35626 0.65625,-0.89624 0.3,-1.01626 0.23625,-1.0125 0.54,-0.71624 0.8325,-1.37626 -0.47625,-0.65624 -0.59625,-0.71626 v -0.8925 l -0.12,-1.31624 -1.0725,-0.47626 -0.95625,-0.59624 -0.33,-1.26376 -0.74625,-0.22874 -0.8925,0.65624 -1.8525,-1.5525 -0.59625,-1.3125 -2.02875,0.53626 -1.19625,-0.35626 -2.08875,0.71626 -0.47625,-1.13626 0.65625,-0.8925 z m 9.5175,3.99 0.03,0.0113 -0.06,-0.12 0.03,0.10876 z m -12.4425,25.65002 1.575,-0.33626 0.7575,-0.15625 0.7275,0.57875 -0.735,-0.59624 -1.11375,0.24374 z m 3.06,0.0862 0.22125,0.18 -1.0725,2.08876 -1.9125,0.47624 v 2.20876 l 0.89625,1.3125 0.12,0.89624 1.78875,1.1325 1.25625,-0.11624 0.41625,0.41624 1.01625,1.8525 -0.48,2.325 1.19625,0.48 c 0,0 0.95374,-0.1197 1.1925,-0.06 9.6e-4,0 0.003,0 0.004,0 0.004,0.002 0.011,0.005 0.015,0.007 0.24749,0.17845 0.7575,2.4375 0.7575,2.4375 l 1.3125,0.77626 4.1775,1.9125 1.4325,0.17624 1.5525,-0.03 0.25125,0.22876 0.16875,-0.615 c -1e-5,-2e-5 0.47383,-1.0672 0.7725,-1.2525 0.29845,-0.17908 0.42,-1.4925 0.42,-1.4925 l 0.06,-1.5525 1.0125,0.06 1.25625,0.06 1.1325,-0.65626 1.3125,-0.77624 0.95625,0.83624 1.01625,0.11626 -0.24,-1.3725 -0.89625,-0.8925 -0.95625,-1.31626 -1.0725,-0.8925 -0.89625,-1.01624 -0.12,-1.3125 -0.47625,-1.3125 -1.1325,-0.18 -0.42,-1.01626 -0.71625,-0.8925 0.3,-1.13624 0.59625,-1.6125 -1.8525,-0.53626 -1.90875,-0.41624 -0.35625,-1.4325 -0.48,-0.54 -1.4325,-1.01252 h -1.1325 l -0.77625,-0.18 -0.89625,-0.53624 -1.0725,0.9525 -1.07625,-0.23626 -1.3725,0.35626 -0.35625,1.01626 -0.42,0.71624 -1.3725,0.95626 -1.6725,0.41624 h -0.0413 z m -63.941245,11.97376 h -0.06 l 0.05625,0.1425 0.0037,-0.1425 z"
       id="path5915"
       sodipodi:nodetypes="ccccccccccccccccccccccccccccccccccccccccccccccccccccccccccccccccccccccccccccccccccccccccccccccccccccccccccccccccccccccccccccccccccccccccccccccccccccccccccccccccccccccccccccccccccccccccccccccccccccccccccccccccccccssscccccccccccccccccccccccccccccccccccccccccccccccc" />
    <path
       inkscape:connector-curvature="0"
       id="path10305"
       style="fill:#808080;fill-opacity:1;fill-rule:evenodd;stroke:#ffffff;stroke-width:0.36;stroke-linecap:butt;stroke-linejoin:miter;stroke-miterlimit:4;stroke-dasharray:none;stroke-dashoffset:0;stroke-opacity:1"
       d="m 130.52486,913.61161 0.5969,-0.47752 0.17907,-0.89534 1.49225,0.71627 0.83566,0.53721 0.95503,0.5969 1.43255,0.17907 1.73101,0.23875 h 1.19379 l 1.31318,0.71628 1.31317,0.71628 1.31318,0.77597 1.43255,-0.29845 h 1.07442 l 1.25348,0.11938 1.43255,-0.53721 0.89536,-0.17907 0.23875,-0.83566 0.5969,-1.1938 1.31318,-0.35812 0.95503,0.35812 1.07442,0.59691 1.31317,0.11937 1.31317,0.0597 h 0.95505 l 1.25349,0.41783 0.59689,0.23876 1.43256,-0.0597 h 1.07441 l 0.65659,0.41782 0.71628,0.71628 0.77597,0.65658 0.95503,0.41783 1.31317,0.95505 0.71628,-0.29846 0.65659,-0.71628 -0.0597,-0.95503 0.47752,-0.89534 0.47752,-0.95505 0.59689,-0.83565 -0.23875,-1.49224 0.29845,-0.83567 1.31317,-0.89534 0.35814,-0.5372 -0.0597,-0.77597 -1.13411,-0.29845 -0.47751,-0.29844 -0.77597,-1.61163 -0.5969,-1.19379 -0.65658,-1.07442 -0.77597,-1.61163 -0.83566,0.0597 -0.17907,0.65659 -0.23876,0.41783 -1.31318,-0.35814 -0.5372,0.47752 -0.35814,0.35814 -1.37286,-0.83566 -0.95505,-0.65659 -0.47751,-0.23875 -0.71628,-2.3876 -0.65658,-1.67131 -0.35814,-1.31318 0.41782,-1.79069 0.11938,-0.35814 -1.07441,-0.71628 -0.95505,-0.77597 -1.25348,-0.77595 -0.0597,-1.01474 0.35814,-1.07442 0.5372,-0.95503 -0.11937,-0.95503 -0.41783,-0.41783 0.59689,-1.85039 0.53722,-1.67131 -0.11939,-0.77597 -0.41783,-0.17906 -1.01472,-0.11939 -1.19379,-0.71627 -0.71628,-0.5969 v -0.23876 h 2.56665 l 0.35814,-0.35813 -0.0597,-0.53722 -1.55193,-0.71628 -2.14883,-0.17906 -1.01472,0.0597 h -1.49225 l -0.5969,-1.13411 -0.71627,-2.26821 -0.47753,-1.85038 0.41784,-1.43255 1.49224,0.0597 0.77597,0.0597 v -0.77596 l -0.47752,-0.71628 -1.1938,-0.23876 -1.19379,0.17907 -0.77597,0.71628 -1.96976,0.0597 -2.02946,-0.29846 -1.31317,-1.19379 -0.59689,-0.59689 -1.13411,0.0597 -0.95504,0.29846 -0.65658,0.0597 -0.23877,0.5969 -0.35814,1.01473 -1.73442,0.46473 -0.0563,-0.10659 0.41782,0.5372 0.41783,0.47752 0.95503,0.35814 1.37288,2.02945 1.49223,2.38759 -1.07441,2.26822 -0.89535,1.01472 0.0597,1.31317 -0.59691,1.2535 0.41783,0.59689 h 2.02945 l 0.89535,-0.77597 1.31318,1.31317 0.47752,1.1938 0.71628,1.31318 -0.77597,0.83566 -0.0597,1.55192 h -0.5969 l -0.23877,0.59691 0.53722,0.59689 -0.53722,0.77597 -0.0597,0.65659 c 0,0 0.35814,0.71628 0.65659,0.71628 0.29845,0 -0.11938,1.01472 -0.11938,1.01472 l -0.77597,0.29845 -0.41782,0.95503 -0.6566,-0.83565 -0.83565,0.53721 -2.26822,-1.37287 -0.0597,-0.5372 -1.43254,-1.25349 h -0.95505 l -0.77597,-1.61162 0.41783,-1.31319 0.77597,-0.11937 -0.41783,-0.83566 -1.49223,-0.71628 0.0597,-0.95503 -1.01473,-0.5372 -0.59689,0.17906 -1.25348,-0.0597 -0.95505,0.47752 -1.01472,-0.0597 c 0,0 -0.56706,1.35794 -1.01473,1.731 l -0.0597,-0.11938 0.35814,1.37286 0.95503,0.59691 1.07442,0.47751 0.11938,1.31318 v 0.89534 l 0.5969,0.71628 0.47752,0.65659 -0.83566,1.37286 -0.5372,0.71628 -0.23876,1.01473 -0.29846,1.01472 -0.65658,0.89535 -0.77596,0.35814 h -1.1938 l -1.61162,1.55193 0.0597,0.89535 -2.74573,1.07442 -1.49223,-1.01473 -0.6566,0.23876 -1.07442,0.95503 -1.731,0.77597 -1.31317,0.71628 -1.67131,-0.11938 -0.77597,0.41783 0.35814,1.43255 -0.41784,0.77597 0.0597,1.731 0.11938,1.37287 0.89534,0.35814 0.47752,0.5372 0.0597,1.43256 v 1.31318 l 0.0127,-0.0876 0.82296,-0.18105 1.49224,-0.3283 0.71504,0.53597 0.0609,0.0609 1.67131,-0.41783 1.37287,-0.95505 0.41783,-0.71626 0.35814,-1.01474 1.37286,-0.35814 1.07442,0.23877 1.07441,-0.95505 0.89535,0.53722 0.77596,0.17906 h 1.13411 l 1.43256,1.01474 0.47751,0.5372"
       sodipodi:nodetypes="ccccccccccccccccccccccccccccccccccccccccccccccccccccccccccccccccccccccccccccccccccccccccccccccccccccccccccccccccccccccccccccccccccccsccccccccccccccccccccccccccccccccccccccccccccccccccccccccccccccccccccccc" />
    <path
       inkscape:connector-curvature="0"
       id="path11191"
       style="fill:#808080;fill-opacity:1;fill-rule:evenodd;stroke:#ffffff;stroke-width:0.36;stroke-linecap:butt;stroke-linejoin:miter;stroke-miterlimit:4;stroke-dasharray:none;stroke-dashoffset:0;stroke-opacity:1"
       d="m 130.60597,913.58391 0.59691,-0.47751 0.17906,-0.89535 1.49225,0.71627 0.83565,0.53722 0.95504,0.59689 1.43256,0.17908 1.731,0.23875 h 1.19379 l 1.31317,0.71628 1.31318,0.71628 1.31318,0.77597 1.43255,-0.29846 h 1.07442 l 1.25348,0.11938 1.43255,-0.5372 0.89536,-0.17908 0.23875,-0.83566 0.5969,-1.19379 1.31317,-0.35813 0.95504,0.35813 1.07442,0.5969 1.31317,0.11938 1.31317,0.0597 h 0.95505 l 1.25348,0.41782 0.5969,0.23877 1.43256,-0.0597 h 1.0744 l 0.6566,0.41783 0.71628,0.71628 0.77596,0.65658 0.95504,0.41783 1.31317,0.95504 0.17907,-0.0597 0.77597,1.25349 0.83566,0.59689 0.65658,0.29845 1.31318,-0.59689 0.35814,-0.83567 0.95503,-0.83566 0.83566,-0.41782 0.41783,-0.77597 0.41783,-0.83566 0.71628,-0.65658 0.89534,-0.35814 0.95503,-0.5969 0.95505,-0.47752 0.71626,-0.35814 0.77597,-0.11937 h 0.41783 l 0.53722,-0.17908 0.5372,-0.11938 0.35814,0.59691 0.41783,0.71627 0.77597,0.17907 0.83565,-0.0597 1.1938,-0.11938 0.35814,-0.11938 0.47751,1.13411 0.41783,0.23875 h 0.77597 l 0.77597,-0.41783 0.59689,-0.5372 0.5969,-0.41783 h 0.47752 l 0.5372,-0.17906 1.49225,-0.0597 0.53721,-0.29845 h 0.53721 l 0.71627,0.17906 h 0.53722 l 0.71626,-0.23875 h 0.6566 l 0.89534,-0.0597 0.83566,-0.11938 0.65659,-0.0597 h 0.77597 l 0.59689,-0.17906 1.07442,-0.41783 0.71628,-0.23876 0.71628,0.71628 0.95503,0.47751 0.59689,0.71628 0.65659,1.07441 0.6566,0.89536 0.89534,1.13409 0.47752,0.71628 0.0597,1.07442 -0.5372,0.95504 -0.23876,0.77596 0.17907,0.95505 0.35814,0.65658 0.41783,0.47751 0.35813,1.07442 v 1.43256 l 0.17907,1.37286 0.11938,0.47752 0.77597,0.29845 1.01473,0.83566 0.81458,0.4703 -0.21769,0.18629 -2.08914,0.47752 -0.65659,1.31317 -0.35814,0.59689 -1.19378,-1.25348 -0.71628,1.01473 -1.73102,0.17906 -1.31317,4.7155 -2.44728,0.5372 -0.65658,1.61163 -0.77597,0.11938 -0.53721,0.89535 -2.26821,0.65658 v 1.55193 l -0.53721,0.89535 -1.731,-1.61163 -0.53721,0.53722 -0.83565,-0.35814 -0.71628,-0.47752 -0.71628,-0.77596 -2.20852,0.47751 -1.19379,0.41783 -0.83566,-0.41783 -1.91008,0.29845 -2.02945,0.29844 -1.31317,-1.91006 -1.96976,-0.23876 -1.79069,0.11937 -2.20853,-1.49223 -2.02945,0.0597 -1.43255,0.83566 -2.62636,-0.23876 -3.10387,-1.1341 -1.01472,0.59689 -0.95503,-0.89534 -0.95504,0.23875 -0.89535,-0.71627 -1.67132,0.53721 -1.07442,-0.71628 -2.62634,1.01473 -2.38759,0.11937 -2.56667,-1.31317 -2.74572,-0.17907 -3.28294,-0.17907 -3.04418,0.0597 -2.56666,-1.37286 -0.5969,-0.29845 -1.85038,0.0597 -1.24708,-0.0779 0.18652,0.0976 0.16522,-0.6166 c 0,0 0.47752,-1.07442 0.77597,-1.25349 0.29844,-0.17907 0.41783,-1.49224 0.41783,-1.49224 l 0.0597,-1.55193 1.01472,0.0597 1.25349,0.0597 1.13411,-0.65658 1.31317,-0.77597 0.95504,0.83566 1.01472,0.11938 -0.23875,-1.37286 -0.89536,-0.89535 -0.95503,-1.31318 -1.07442,-0.89535 -0.89534,-1.01472 -0.11938,-1.31318 -0.47751,-1.31317 -1.13411,-0.17907 -0.41783,-1.01473 -0.71628,-0.89534 0.29845,-1.13411 0.59689,-1.61162 -1.85037,-0.53721 -1.91008,-0.41783 -0.35814,-1.43256"
       sodipodi:nodetypes="ccccccccccccccccccccccccccccccccccccccccccccccccccccccccccccccccccccccccccccccccccccccccccccccccccccccccccccccccccccccccccccccccccccccccccccccccccccccccsccccccccccccccccccccccc" />
    <path
       inkscape:connector-curvature="0"
       id="path11204"
       style="fill:#808080;fill-opacity:1;fill-rule:evenodd;stroke:#ffffff;stroke-width:0.36;stroke-linecap:butt;stroke-linejoin:miter;stroke-miterlimit:4;stroke-dasharray:none;stroke-dashoffset:0;stroke-opacity:1"
       d="m 191.01877,880.58563 0.28138,0.48737 0.6566,0.5372 0.71626,-0.59689 1.67133,0.0597 0.65658,0.11937 0.47751,0.23877 0.95505,0.83565 c 0,0 0.41783,0.0597 0.77597,0.11938 0.35812,0.0597 0.77596,-0.29845 0.77596,-0.29845 l 0.5969,-1.37286 0.71628,-0.17908 1.0744,-0.11937 0.71628,0.41782 0.59691,-0.17906 1.01472,-0.53722 1.13411,-0.47751 1.25348,-0.29845 0.47752,-1.37286 0.35814,-0.23876 0.5969,-0.6566 0.77596,0.17908 0.95504,-0.23876 0.5372,-0.53721 0.59691,-0.11938 c 0,0 0.5372,0 0.95503,0 0.41783,0 1.1938,1.13411 1.1938,1.13411 l 0.71628,0.89534 c 0,0 1.0744,0.11938 1.31317,0.11938 0.23876,0 1.19379,0.35814 1.19379,0.35814 l 0.83566,1.01473 1.25348,-0.17907 h 1.31318 l 0.53721,1.19379 0.71627,0.11939 0.95504,0.11938 h 1.07441 l 0.53722,1.49224 0.83565,2.02946 0.71628,-1.31319 1.25349,0.0597 0.41783,1.55193 -0.11939,1.19379 1.25348,-0.11937 0.77597,0.65659 0.53722,0.83565 0.41782,0.89535 h 1.1938 1.37286 l 0.29845,0.41783 0.41783,0.23875 1.13411,-0.0597 0.71627,-0.71626 0.11938,1.85038 0.65658,0.65659 1.01474,0.95503 -0.83566,1.37286 -0.89534,1.2535 -0.6566,-1.3132 h -0.5969 v 0.47754 l -0.0597,0.77596 -0.47751,0.29845 0.41782,1.31317 0.53721,1.31319 0.35814,1.01472 0.5969,1.31317 0.23875,1.37287 0.0597,1.13411 0.47752,0.83565 0.5372,0.71627 0.0597,0.65659 v 1.01472 l -0.35814,1.37288 0.17908,1.07442 0.95503,1.01472 1.01473,0.65659 -0.0597,1.19379 -0.59689,0.89535 -0.65659,1.19379 -0.65658,1.07441 -0.47752,0.95505 -0.41783,0.0597 -0.89535,0.71628 0.11939,1.55194 0.41782,0.59689 0.65658,0.59691 v 0.71626 l -0.29844,0.29846 -0.95504,0.23876 0.47752,0.77597 v 1.731 l 0.17907,1.55193 0.53721,0.83566 0.71628,0.11938 0.11937,0.71628 0.53722,0.47751 v 1.55194 h -0.53722 l -1.25348,-1.61163 -0.59689,0.23877 -3.28294,-1.31319 -1.7907,0.47753 -1.25348,0.89535 -1.01472,0.23875 h -0.59691 l -0.71628,-0.41783 h -0.83565 l -0.35814,1.07442 -0.17907,0.41783 -0.95503,-0.35814 -1.67132,0.71628 v 0.77597 0.89534 l -0.95504,0.77597 -1.37286,0.17906 -0.77596,-0.71627 -0.59691,-0.5969 h -1.13409 l -2.9845,0.41783 -2.50697,0.23876 -1.25348,-0.47751 -2.32791,0.41782 0.2177,-0.18628 -0.81459,-0.47031 -1.01473,-0.83565 -0.77597,-0.29846 -0.11937,-0.47751 -0.17908,-1.37286 v -1.43256 l -0.35813,-1.07442 -0.41783,-0.47752 -0.35814,-0.65658 -0.17907,-0.95504 0.23876,-0.77597 0.53721,-0.95503 -0.0597,-1.07442 -0.47752,-0.71628 -0.89534,-1.1341 -0.65659,-0.89535 -0.6566,-1.07441 -0.59689,-0.71628 -0.95503,-0.47752 -0.71628,-0.71628 -0.71628,0.23877 -1.07442,0.41782 -0.59689,0.17907 h -0.77597 l -0.65659,0.0597 -0.83566,0.11937 -0.89534,0.0597 h -0.65659 l -0.71627,0.23875 h -0.53722 l -0.71627,-0.17907 h -0.53721 l -0.53721,0.29846 -1.49224,0.0597 -0.53721,0.17906 h -0.47751 l -0.59691,0.41783 -0.59689,0.53721 -0.77597,0.41782 h -0.77597 l -0.41782,-0.23875 -0.47752,-1.13411 -0.35814,0.11938 -1.1938,0.11939 -0.83565,0.0597 -0.77597,-0.17908 -0.41783,-0.71627 -0.35814,-0.5969 -0.5372,0.11937 -0.53722,0.17908 h -0.41783 l -0.77596,0.11938 -0.71627,0.35814 -0.95505,0.47751 -0.95503,0.59691 -0.89534,0.35814 -0.71628,0.65658 -0.41783,0.83565 -0.41783,0.77597 -0.83565,0.41783 -0.95504,0.83565 -0.35814,0.83567 -1.31318,0.59689 -0.65658,-0.29845 -0.83566,-0.59689 -0.77596,-1.25348 -0.17908,0.0597 0.71628,-0.29845 0.65659,-0.71628 -0.0597,-0.95503 0.47752,-0.89534 0.47752,-0.95505 0.59689,-0.83565 -0.23875,-1.49224 0.29845,-0.83567 1.31317,-0.89534 0.35814,-0.53721 -0.0597,-0.77596 -1.13411,-0.29846 -0.47751,-0.29844 -0.77597,-1.61162 -0.5969,-1.1938 -0.65658,-1.07442 -0.77597,-1.61162 -0.83566,0.0597 -0.17907,0.65658 -0.23876,0.41784 -1.31318,-0.35814 -0.5372,0.47751 -0.35814,0.35814 -1.37286,-0.83565 -0.95505,-0.65659 -0.47751,-0.23877 -0.71628,-2.38759 -0.65658,-1.67131 -0.35814,-1.31317 0.41782,-1.7907 0.11938,-0.35814 h -0.0597 l 1.1938,0.29846 1.37286,0.17906 0.77597,0.17908 0.17907,-0.65659 0.17907,-0.53721 0.77596,-0.53722 0.17908,-0.17906 v -0.95504 l -0.23876,-0.65659 -0.5969,-0.71628 -0.65659,-0.53721 -0.35814,-0.65659 -0.11937,-0.77597 v -0.83565 -0.95503 l 0.0597,-1.07442 0.11938,-0.29844 1.96976,-1.1938 1.37286,-0.77597 0.95505,-0.71628 1.07441,0.77597 0.47752,0.11938 1.07441,0.11937 0.29845,-0.0597 0.41783,0.41783 1.13411,-0.29843 h 0.11938 l 1.01473,0.89534 1.01472,0.89535 0.11937,0.59689 -0.0597,0.77596 0.47751,0.0597 0.35814,-0.83566 0.95505,-0.11938 0.77596,-0.0597 0.41783,-0.65659 0.83566,-0.17907 h 0.47751 l 0.71628,0.83566 0.65658,0.41784 1.85039,0.23875 c 0,0 0.53721,0 0.77597,0 0.23875,0 0.83566,-0.17908 0.83566,-0.17908 l 0.23875,-0.59689 0.77597,-1.19379 0.41782,-0.35814 h 0.6566 l 0.95503,-0.0597 0.41783,-0.59691 -0.0597,-0.59689 1.49225,-0.5969 0.77596,-0.29844 1.61163,-0.59691 1.07441,-0.47751 0.95504,-1.13411 0.65658,-0.59689"
       sodipodi:nodetypes="ccccccccsccccccccccccccccsccscccccccccccccccccccccccccccccccccccccccccccccccccccccccccccccccccccccccccccccccccccccccccccccccccccccccccccccccccccccccccccccccccccccccccccccccccccccccccccccccccccccccccccccccccccccccccccccccccccccccccccccccccccccccccccccccccccccccccccscccccccccccccc" />
    <path
       inkscape:connector-curvature="0"
       id="path12093"
       style="fill:#808080;fill-opacity:1;fill-rule:evenodd;stroke:#ffffff;stroke-width:0.36;stroke-linecap:butt;stroke-linejoin:miter;stroke-miterlimit:4;stroke-dasharray:none;stroke-dashoffset:0;stroke-opacity:1"
       d="m 135.74898,873.79083 v -0.83565 l -0.28744,-0.71417 0.0487,-0.12149 -0.77596,-0.71628 -1.49224,-0.89534 -0.59691,-1.31319 -0.41783,-1.55192 0.59691,-0.29845 0.83565,0.11937 -0.0597,-0.71628 0.41782,-0.59689 0.95504,-0.47751 0.11937,-0.77597 v -0.77597 l 0.71628,-0.41783 h 1.07442 l 0.95503,-0.17907 0.77598,-0.17907 0.29845,-0.5372 0.59689,-1.01473 0.23877,-0.5969 0.77597,-0.11938 h 0.89534 l 0.47752,-0.29844 0.35814,-0.35814 0.65659,-0.0597 0.59689,-0.53722 1.01473,-0.47751 2.32789,-0.0597 0.71628,-0.23877 1.31318,-0.95503 0.89534,-1.01471 0.83567,-0.89536 0.59689,-0.71628 0.17906,-0.71627 0.23877,-0.5969 0.17906,-0.59689 v -0.89535 l -0.0597,-0.83565 v -0.71628 l 0.17908,-0.71628 0.59689,-0.89535 -0.41783,-1.07442 -0.29845,-0.83565 v -0.65658 l 0.59691,-0.47753 0.83565,-0.35814 0.89535,-0.23875 0.77596,0.5372 0.47752,0.47752 0.71628,-0.23875 0.41783,-0.0597 0.53721,0.41783 0.95504,0.0597 0.23875,0.47752 0.35814,0.41783 0.89535,0.5372 0.53721,0.23877 0.41783,-0.53721 0.11938,-1.49225 0.77597,-0.11937 0.95503,-0.89536 v -0.95503 l 0.71628,-0.83566 -0.65658,-2.92479 0.47751,-0.71628 -1.25348,-1.01472 0.5372,-0.65659 0.23877,-0.59691 0.23875,-0.95503 0.77597,0.11938 0.83565,0.0597 2.32791,1.91006 1.19379,0.11939 0.83566,1.25348 0.83566,0.53721 v 0.71628 l -0.89535,0.41782 v 0.53721 l 0.59689,0.5372 0.0597,0.47753 1.07442,0.59689 3.64108,0.0597 0.95503,0.5372 0.89536,0.0597 0.77595,0.11938 0.77597,0.23876 0.89536,0.5969 0.89534,-0.95504 0.65658,-0.77596 0.71628,0.0597 0.53722,-1.19379 v -1.31317 l 1.19378,-0.29846 0.71628,0.83566 0.77597,0.35814 0.77597,0.35814 0.5969,-0.5969 0.59689,-0.47752 0.53721,0.29845 0.17907,0.71628 h 0.95503 l 0.29846,0.95503 0.89534,0.0597 0.0597,-0.0597 v 0.6566 h 1.01473 l 1.01472,0.17906 1.1938,0.47752 1.07442,0.35814 1.31317,0.11937 1.13411,0.71628 -0.17908,0.65659 -0.59689,0.0597 -0.53721,0.77597 -0.17907,0.5372 0.17907,0.59691 1.37286,1.07441 0.5969,0.23876 0.0597,1.49225 h 0.71626 v 0.41783 l 0.0597,1.13409 -0.0597,0.59691 0.47753,0.77596 0.11938,0.89535 -0.0597,1.37286 0.0597,1.19379 0.17906,1.91007 -0.41783,-0.23876 -0.5372,-0.23875 -0.47752,-0.41783 -0.65659,0.0597 -0.5372,0.0597 -0.59691,0.41782 -0.77596,0.83566 -0.5969,0.77597 -0.59689,0.23876 -0.71628,0.17907 -0.65659,0.17907 -0.71628,0.17907 -1.07441,0.29845 -1.19379,-0.35814 -0.41783,-0.29845 -0.65659,-0.71628 -0.71628,-0.77596 -0.17907,-0.47753 -0.83565,-0.0597 -1.07442,-0.11937 -1.1938,0.95503 -0.11938,1.07442 0.11938,1.25348 -0.29845,1.1938 0.5969,1.13411 -0.23876,0.41783 -0.29844,0.83565 -0.53722,1.13411 0.23877,0.89534 1.19379,0.95504 0.65658,0.53721 0.65659,0.53721 0.6566,0.11937 0.59689,0.35814 0.47751,0.47752 0.89536,0.71628 0.95503,0.29845 0.71628,0.29844 h 0.65658 l 0.95505,0.41783 1.0744,0.89535 0.17908,0.95504 -0.47752,0.35814 v 0.83565 l -0.41782,0.89535 -0.29846,0.53721 v 0.71627 l 0.41783,1.13411 -0.17907,1.07442 -0.65658,0.59689 -0.95505,1.13411 -1.07441,0.47751 -1.61162,0.59691 -0.77597,0.29844 -1.49225,0.5969 0.0597,0.59689 -0.41783,0.59691 -0.95503,0.0597 h -0.65659 l -0.41783,0.35814 -0.77597,1.19379 -0.23875,0.59689 c 0,0 -0.5969,0.17908 -0.83565,0.17908 -0.23877,0 -0.77597,0 -0.77597,0 l -1.85039,-0.23876 -0.65658,-0.41783 -0.71628,-0.83566 h -0.47752 l -0.83565,0.17907 -0.41783,0.65659 -0.77597,0.0597 -0.95504,0.11938 -0.35814,0.83566 -0.47752,-0.0597 0.0597,-0.77596 -0.11938,-0.5969 -1.01472,-0.89534 -1.01473,-0.89535 h -0.11937 l -1.13411,0.29844 -0.41783,-0.41783 -0.29845,0.0597 -1.07441,-0.11937 -0.47753,-0.11938 -1.07441,-0.77597 -0.95504,0.71628 -1.37286,0.77597 -1.96976,1.1938 -0.11938,0.29844 -0.0597,1.07442 v 0.95503 0.83565 l 0.11938,0.77597 0.35814,0.65659 0.65659,0.53721 0.59689,0.71628 0.23877,0.65659 v 0.95503 l -0.17908,0.17907 -0.77597,0.53721 -0.17906,0.53721 -0.17908,0.65659 -0.77597,-0.17908 -1.37286,-0.17906 -1.19379,-0.29845 h 0.0597 l -1.07441,-0.71628 -0.95505,-0.77597 -1.25349,-0.77597 -0.0597,-1.01472 0.35814,-1.07442 0.5372,-0.95503 -0.11938,-0.95503 -0.41782,-0.41783 0.59689,-1.85039 0.53721,-1.67131 -0.11938,-0.77597 -0.41783,-0.17906 -1.01472,-0.11939 -1.1938,-0.71627 -0.71628,-0.5969 v -0.23877 h 2.56666 l 0.35814,-0.35813 -0.0597,-0.53721 -1.55194,-0.71628 -2.14882,-0.17907 -1.01472,0.0597 h -1.49225 l -0.59691,-1.13411 -0.71626,-2.2682 -0.47753,-1.85039 0.41784,-1.43255 1.49223,0.0597 0.77597,0.0597 v -0.77597 l -0.47751,-0.71628 -1.1938,-0.23875 -1.1938,0.17906 -0.77596,0.71628 -1.96977,0.0597 -2.02945,-0.29845 -1.31317,-1.1938 -0.59689,-0.59689 -1.13411,0.0597 -0.95504,0.29845 -0.65659,0.0597 -0.23877,0.59689 -0.35814,1.01473 -1.73442,0.46474"
       sodipodi:nodetypes="ccccccccccccccccccccccccccccccccccccccccccccccccccccccccccccccccccccccccccccccccccccccccccccccccccccccccccccccccccccccccccccccccccccccccccccccccccccccccccccccccccccccccccccccccccccccccccccccccsccccccccccccccccccccccccccccccccccccccccccccccccccccccccccccccccccccccccccccccccccccccc" />
    <path
       inkscape:connector-curvature="0"
       id="path12116"
       style="fill:#808080;fill-opacity:1;fill-rule:evenodd;stroke:#ffffff;stroke-width:0.36;stroke-linecap:butt;stroke-linejoin:miter;stroke-miterlimit:4;stroke-dashoffset:0;stroke-opacity:1"
       d="m 260.17474,858.47798 -0.80582,0.80581 -0.77596,0.77597 -0.29846,-0.35814 -1.31317,0.47752 0.35814,1.01473 -0.0597,0.95503 -0.35814,0.47752 -0.65659,-0.47752 -1.19379,-0.83565 h -1.01472 l -0.95505,0.83565 -0.71627,1.01473 -1.25348,0.71627 -1.13411,0.47753 -0.89534,0.47752 -0.0597,1.31317 -0.23875,0.71628 -0.89534,0.47751 -0.77597,0.35814 v 1.01472 l -0.5969,0.53722 -0.83566,0.65658 -0.59689,-0.59689 -1.13411,-0.71628 -0.71628,0.23876 -1.49225,0.29844 -0.83565,0.71628 -0.41783,0.59691 -0.83566,1.19378 0.17908,0.95504 0.17906,1.13411 -0.5372,0.89535 v 0.83565 l -0.77597,-0.11937 -0.71628,0.65658 v 1.37287 l 0.23876,1.01472 0.17907,0.5372 0.53721,0.83567 0.65658,0.5372 1.01474,1.01472 0.41782,0.53722 0.0597,0.65658 -0.53721,0.65659 v 0.71628 l -0.23876,0.65658 -0.5969,0.47752 -0.11938,0.71628 0.0597,1.19379 0.95505,0.95505 -0.35814,0.95503 -0.83566,0.95503 -0.95504,0.77597 -1.01472,0.89534 -1.13411,0.11939 -1.37286,0.11938 0.0597,0.0597 -0.83566,1.37286 -0.89534,1.25349 -0.6566,-1.31318 h -0.5969 v 0.47753 l -0.0597,0.77595 -0.47751,0.29845 0.41782,1.31318 0.53721,1.31318 0.35814,1.01472 0.5969,1.31317 0.23875,1.37287 0.0597,1.13411 0.47752,0.83566 0.5372,0.71627 0.0597,0.65659 v 1.01472 l -0.35814,1.37287 0.17908,1.07442 0.95503,1.01472 1.01473,0.65659 -0.0597,1.1938 -0.59689,0.89534 -0.65659,1.1938 -0.65658,1.07441 -0.47752,0.95504 -0.41783,0.0597 -0.89535,0.71628 0.11939,1.55193 0.41782,0.5969 0.65658,0.5969 v 0.71627 0.0931 l 0.6564,-0.45127 1.13411,-0.89535 1.1341,-0.29845 1.13411,-1.731 0.5969,-0.77597 0.23875,-0.95503 1.07442,-0.11937 0.23877,-0.53722 0.23875,-0.77597 0.5969,-0.59689 0.23875,-0.71628 0.11939,-0.71628 0.41783,0.35814 h 0.47752 l 1.01472,-0.41783 0.77596,0.23877 0.71628,-0.41783 0.89535,0.5372 0.5372,-0.41783 0.47753,0.11938 1.1341,-0.0597 0.29845,-0.29845 -0.29845,-0.41783 -0.83566,-0.23875 h -1.01472 l 0.17906,-0.65659 1.49225,-0.65658 0.41783,-0.83566 h -0.89534 l -0.6566,-1.13411 0.53722,-0.5969 0.47752,-0.5372 0.35814,-0.23877 0.29844,-0.65658 -0.41783,-0.53721 -0.77597,0.0597 -1.07441,0.77596 -0.29845,-1.07442 0.35814,-0.47751 -0.35814,-0.65659 h -0.47752 l -0.41782,-0.89535 0.41782,-0.65659 0.0597,-1.79069 -0.0597,-1.13411 0.47752,-0.83565 -0.0597,-1.49225 -0.83565,-0.17906 0.17906,-1.67132 -0.35814,-1.1341 0.29845,-0.59691 h 0.53721 l 0.83565,0.83566 0.71628,-0.83566 1.37287,-0.0597 1.96975,-1.85037 0.71628,-0.89536 -0.29844,-0.77595 -0.23876,-0.89536 0.83565,-0.35814 0.65659,-0.5372 -0.0597,-1.01472 -1.31317,-0.83566 -0.11937,-1.67132 -1.19379,-1.01472 -1.01474,0.41782 -2.32789,-0.89534 -0.83565,0.29845 -2.08914,-0.83567 0.59689,-0.89534 h 0.77597 l 0.59689,-1.01472 1.43256,-0.77597 -0.41783,-1.07442 0.29845,-0.65658 h 1.31317 l 0.95504,-0.47753 0.95503,0.71628 1.01472,-0.0597 0.17908,0.41782 h 0.5372 l 0.47752,0.29846 0.35814,0.95503 0.77597,0.41783 2.20851,0.5969 0.71628,-2.08915 0.71628,1.13411 4.23797,-1.25349 1.73101,-0.0597 -0.71628,-1.19379 0.0597,-1.79069 -0.65659,-0.71628 -0.0597,-0.5372 0.29845,-0.6566 -0.35814,-0.65659 -1.49224,-1.07441 v -0.35814 l 1.37287,-0.29845 1.01472,-1.19379 -0.11938,-1.85038 0.29845,-1.01473 -0.23876,-0.65659 1.37286,-1.96976 -0.47752,-0.5969 -1.731,-0.0597 -0.29845,-1.37286 -0.0597,-1.37287 -0.17906,-0.89534 -0.32483,-0.3998"
       sodipodi:nodetypes="cccccccccccccccccccccccccccccccccccccccccccccccccccccccccccccccccccccccccccccccccccccccccccccccccccccccccccccccccccccccccccccccccccccccccccccccccccccccccccccccccccccccccccccccccccccccccccccccccccccccc" />
    <path
       inkscape:connector-curvature="0"
       style="fill:#808080;fill-opacity:1;fill-rule:nonzero;stroke:#ffffff;stroke-width:0.36;stroke-linecap:butt;stroke-linejoin:miter;stroke-miterlimit:4;stroke-dasharray:none;stroke-dashoffset:0;stroke-opacity:1"
       d="m 195.97001,823.69651 -0.12,1.01624 -0.35624,0.95626 0.65624,2.745 -0.18,0.89624 -0.23624,0.9525 0.11624,0.77626 -0.0562,0.71624 -0.36,1.13626 0.24,0.77624 0.41624,0.77626 -0.35624,0.77624 h -0.36 l -0.65626,-0.36 -1.5525,-0.24 h -1.72874 l -0.3,2.20876 -1.84876,1.9725 -0.42,1.60875 0.12,2.08875 -0.41624,1.4325 0.0562,-0.0562 v 0.65625 h 1.01626 l 1.01624,0.17625 1.1925,0.48 1.07626,0.35625 1.3125,0.12 1.1325,0.71625 -0.18,0.65625 -0.59626,0.06 -0.53624,0.77625 -0.18,0.53625 0.18,0.59625 1.3725,1.07625 0.59624,0.24 0.06,1.4925 h 0.71626 v 0.41625 l 0.06,1.1325 -0.06,0.6 0.47624,0.7725 0.12,0.89625 -0.06,1.3725 0.06,1.19624 0.18,1.90876 -0.41624,-0.24 -0.54,-0.23626 -0.47626,-0.42 -0.65624,0.06 -0.53626,0.06 -0.59624,0.42 -0.77626,0.8325 -0.6,0.77626 -0.59624,0.24 -0.71626,0.18 -0.65624,0.17624 -0.71626,0.18 -1.0725,0.3 -1.19624,-0.36 -0.41626,-0.29624 -0.65624,-0.71626 -0.71626,-0.77624 -0.18,-0.48 -0.83624,-0.0563 -1.0725,-0.12 -1.19626,0.9525 -0.11624,1.07626 0.11624,1.2525 -0.29624,1.1925 0.59624,1.13624 -0.24,0.41626 -0.29624,0.83624 -0.54,1.13626 0.24,0.8925 1.1925,0.95624 0.66,0.53626 0.65624,0.54 0.65626,0.11624 0.59624,0.36 0.47626,0.47626 0.89624,0.71624 0.95626,0.3 0.71624,0.29626 h 0.65626 l 0.9525,0.42 1.07624,0.89624 0.18,0.9525 -0.48,0.36 v 0.83626 l -0.41624,0.8925 -0.3,0.54 v 0.71624 l 0.42,1.1325 -0.2025,1.03876 0.2625,0.45374 0.65624,0.53626 0.71626,-0.59626 1.66874,0.06 0.66,0.12 0.47626,0.23626 0.95624,0.83624 c 0,0 0.41436,0.0603 0.7725,0.12 0.35813,0.0597 0.77626,-0.29624 0.77626,-0.29624 l 0.6,-1.37626 0.71624,-0.17624 1.0725,-0.12 0.71626,0.41624 0.59624,-0.17624 1.01626,-0.54 1.1325,-0.47626 1.25624,-0.3 0.47626,-1.3725 0.35624,-0.23624 0.6,-0.65626 0.77626,0.17626 0.9525,-0.23626 0.53624,-0.54 0.6,-0.11624 c 0,0 0.53468,0 0.9525,0 0.41783,0 1.19626,1.1325 1.19626,1.1325 l 0.71624,0.89624 c 0,0 1.07374,0.12 1.3125,0.12 0.23877,0 1.1925,0.35626 1.1925,0.35626 l 0.83626,1.01624 1.2525,-0.18 h 1.3125 l 0.54,1.1925 0.71624,0.12 0.9525,0.12 h 1.07626 l 0.53624,1.4925 0.83626,2.02876 0.71624,-1.3125 1.2525,0.06 0.42,1.5525 -0.12,1.1925 1.2525,-0.12 0.77626,0.65624 0.53624,0.83626 0.42,0.89624 h 1.1925 1.3725 l 0.3,0.41626 0.41626,0.24 1.13624,-0.06 0.71626,-0.71626 0.11624,1.84876 0.66,0.66 0.9525,0.8925 1.3725,-0.12 1.13626,-0.11626 1.0125,-0.89624 0.95624,-0.77626 0.83626,-0.95624 0.35624,-0.9525 -0.9525,-0.95626 -0.06,-1.1925 0.12,-0.71624 0.59626,-0.48 0.23624,-0.65626 v -0.71624 l 0.54,-0.65626 -0.06,-0.65624 -0.42,-0.53626 -1.0125,-1.01624 -0.65624,-0.53626 -0.54,-0.83624 -0.17626,-0.53626 -0.24,-1.01624 v -1.3725 l 0.71626,-0.65626 0.77624,0.12 v -0.83624 l 0.53626,-0.89626 -0.18,-1.1325 -0.17626,-0.95624 0.83626,-1.1925 0.41624,-0.59626 0.83626,-0.71624 1.4925,-0.3 0.71624,-0.24 1.1325,0.71624 0.59626,0.59626 0.83624,-0.65626 0.59626,-0.53624 v -1.0125 l 0.77624,-0.36 0.89626,-0.47626 0.24,-0.71624 0.06,-1.31626 0.89249,-0.47624 1.13625,-0.47626 1.2525,-0.71624 0.71625,-1.01626 0.95625,-0.83624 h 1.0125 l 1.19625,0.83624 0.65625,0.48 0.35625,-0.48 0.06,-0.9525 -0.35625,-1.01624 1.3125,-0.47626 0.29625,0.35626 0.77625,-0.77626 0.80625,-0.80624 -0.0225,-0.0413 -0.42375,-0.52499 h -0.53625 l -0.71625,-0.24 -0.77625,-0.8325 -0.65625,-0.12 -0.36,-1.25625 -0.24,-0.8925 -0.35625,-0.95625 v -1.3725 l -0.89625,-0.24 -0.24,-0.35625 -0.65625,-0.83625 -0.23625,-1.07625 -1.5525,-0.8325 -0.36,-1.07625 0.42,-0.53625 -0.06,-3.045 0.71625,-1.5525 0.71625,-1.3125 0.83625,-1.4325 -0.59625,-1.6725 v -0.8925 l -0.3,-1.01626 -1.01625,-3.225 -0.8925,-1.0725 -1.25625,0.71626 h -1.72874 l -0.83626,-0.95626 -1.3125,-0.18 -0.18,0.54 -0.59624,0.29626 -0.24,-0.77626 v -1.0125 l -0.89626,-0.83624 -1.2525,0.59624 -2.20874,-1.1925 -0.89626,0.59626 -1.1925,-0.3 -0.95624,2.68874 -1.3125,0.9525 -0.53626,-0.47624 h -0.53624 l -0.48,0.71624 -0.41626,-0.41624 h -0.3 l -1.96874,0.17624 -2.14876,-0.41624 -0.59624,0.47624 h -1.3125 l -4.12126,-2.32874 -0.59624,-0.9525 -3.34126,-1.7325 h -1.6125 l -0.12,0.42 -0.29624,0.59624 -2.14876,-0.18 -0.3,-0.41624 -0.71624,-0.48 -1.01626,-0.53626 -1.48874,-0.18 -1.7325,-0.35624 -1.1325,-1.5525 h -1.4325 l -2.32876,-1.13626 -1.07624,0.42 -0.9525,-0.65624 -0.42,1.84874 -1.3725,-0.06 -0.89626,0.71626 -0.8925,-0.11626 0.59626,-1.07624 -0.77626,-1.1925 h -2.08874 l -0.48,-0.48 -2.14876,-0.12 z m 43.24126,26.7075 c 0.008,-8.4e-4 0.0183,7.2e-4 0.0262,0 0.11076,0.0662 0.22875,0.11975 0.33376,0.195 0.26902,0.0827 0.23485,0.3314 0.24,0.55875 0.1837,0.26607 0.0618,0.61192 0.0975,0.915 0.42905,0.30094 0.85564,0.60437 1.275,0.91875 0.0557,0.0808 0.11095,0.0967 0.1575,0.0788 0.10418,-0.0446 0.17346,-0.27141 0.15,-0.39 0.007,-0.20085 -0.13253,-0.46508 -0.0563,-0.6225 0.37542,-0.0437 0.7417,0.082 1.0575,0.2775 0.30401,0.11045 0.0725,0.34945 -0.007,0.5325 -0.21129,0.23919 0.13395,0.3019 0.12376,0.53625 0.23836,0.0773 0.29861,0.34102 0.585,0.3075 0.20243,-0.0196 0.39724,-0.12527 0.615,-0.0337 -0.0396,0.38056 -0.20177,0.73333 -0.2775,1.10625 0.27178,-0.0149 0.27875,0.21366 0.50624,0.2025 -0.12688,0.30656 -0.17857,0.63373 -0.225,0.96 0.0328,0.26533 -0.0885,0.49208 -0.2025,0.72375 -0.13068,0.19393 -0.18158,0.40199 -0.0975,0.62625 0.10754,0.231 0.0845,0.4613 -0.015,0.69 0.12117,0.15826 -0.11017,0.35615 -0.0487,0.5775 0.0471,0.26472 0.4668,0.0896 0.33374,-0.13126 0.0627,0.005 0.10428,0.0156 0.1275,0.0338 0,0 0.003,0.003 0.004,0.004 0,0 0.003,0.003 0.004,0.004 10e-4,10e-4 0.003,0.003 0.004,0.004 0,0 0.003,0.003 0.004,0.004 0.001,10e-4 0.003,0.003 0.004,0.004 0,0 0,0.003 0,0.004 0.0499,0.0997 -0.16808,0.30409 -0.0825,0.4575 0.005,0.008 0.0121,0.0184 0.0188,0.0262 0.0183,0.0209 0.0448,0.0419 0.0788,0.06 -1e-5,10e-4 -2e-5,0.003 0,0.004 0.003,0.0461 0.0439,0.14484 0.0975,0.20626 0.0233,0.0259 0.0521,0.0465 0.0788,0.0525 0.007,10e-4 0.0187,10e-4 0.0263,0 0.035,-0.006 0.0736,-0.0352 0.105,-0.10876 0.0115,0.0411 0.0284,0.0729 0.045,0.0938 0.005,0.006 0.0129,0.0141 0.0188,0.0187 0.005,0.004 0.0133,0.009 0.0188,0.0113 0.002,10e-4 0.006,0.003 0.007,0.004 0.004,10e-4 0.011,0.003 0.015,0.004 0.004,10e-4 0.0109,0 0.015,0 0.005,1.2e-4 0.0134,0 0.0188,0 0.0758,-0.008 0.17274,-0.0748 0.285,-0.13124 0.27103,-0.0455 0.28128,0.31252 0.135,0.45 0.17105,0.13663 0.22891,0.43776 0.1125,0.59624 0.0521,0.1779 0.0515,0.2842 0.015,0.34126 -0.002,0.003 -0.005,0.009 -0.007,0.0113 -0.002,0.002 -0.006,0.006 -0.007,0.007 -0.004,0.004 -0.0104,0.008 -0.015,0.0113 -0.003,0.002 -0.008,0.006 -0.0113,0.007 -0.18265,0.0898 -0.67458,-0.24113 -0.94126,-0.27376 -0.48369,-0.0803 -0.65909,-0.62648 -1.08,-0.82124 -0.21422,-0.21524 -0.49686,-0.0793 -0.735,0.007 -0.22089,-0.0719 -0.3344,-0.0894 -0.51,0.0825 -0.10693,-0.0545 -0.18188,-0.0739 -0.24,-0.0638 -0.0134,0.003 -0.0294,0.009 -0.0412,0.015 -0.005,0.003 -0.0137,0.008 -0.0188,0.0113 -0.0625,0.0416 -0.10879,0.12784 -0.1725,0.23626 -0.20655,0.1332 -0.27121,0.35832 -0.4725,0.48 -0.22512,0.35742 -0.60695,0.29419 -1.00124,0.2925 -0.21312,0.0859 0.0613,0.42853 -0.007,0.61874 0.0224,0.12238 0.0719,0.23379 0.0712,0.29626 -1.1e-4,0.003 -0.003,0.009 -0.004,0.0113 0,0.002 0,0.006 0,0.007 0,0.002 -0.003,0.006 -0.004,0.007 0,10e-4 0,0.003 0,0.004 0,0.001 -0.003,0.003 -0.004,0.004 -0.003,0.004 -0.007,0.009 -0.0113,0.0113 -0.001,0 -0.003,0.003 -0.004,0.004 -0.006,0.003 -0.0173,0.003 -0.0263,0.004 -0.0385,0.002 -0.10403,-0.0107 -0.2025,-0.0488 -0.24022,-0.23148 -0.30726,0.17079 -0.56625,0.045 -0.0311,0.0692 -0.0619,0.10958 -0.09,0.1275 -0.003,0.002 -0.008,0.006 -0.0113,0.007 -0.003,0.001 -0.008,0.003 -0.0113,0.004 -0.004,10e-4 -0.0112,-8e-5 -0.015,0 -0.003,-4e-5 -0.008,0 -0.0113,0 -0.003,0 -0.008,-0.003 -0.0113,-0.004 -0.004,-10e-4 -0.0112,-0.002 -0.015,-0.004 -0.003,-0.001 -0.008,-0.006 -0.0113,-0.007 -0.0668,-0.0408 -0.14052,-0.14568 -0.24,-0.2025 -0.30669,-0.0225 -0.53196,-0.28917 -0.8475,-0.23624 -0.33321,-0.10702 -0.71637,-0.10678 -1.005,-0.315 -0.29873,-0.13739 -0.64285,-0.17239 -0.94874,-0.3075 -0.011,0.007 -0.0238,0.0165 -0.0338,0.0262 -0.11534,0.11652 -0.15989,0.38349 -0.24,0.5475 -0.007,0.0463 -0.0205,0.0808 -0.0337,0.10126 -0.006,0.009 -0.0156,0.0174 -0.0225,0.0225 -0.001,0 -0.003,0.003 -0.004,0.004 -0.002,10e-4 -0.006,0.003 -0.007,0.004 -0.002,10e-4 -0.006,0.003 -0.007,0.004 -0.002,10e-4 -0.006,0 -0.007,0 -0.002,0 -0.006,0.003 -0.007,0.004 -0.0286,0.004 -0.0622,-0.002 -0.09,0.004 -0.002,0 -0.006,0 -0.007,0 -0.002,0.001 -0.006,0.003 -0.007,0.004 -0.002,10e-4 -0.006,0.003 -0.007,0.004 -0.001,0 -0.003,0.003 -0.004,0.004 -0.006,0.004 -0.0135,0.0116 -0.0188,0.0187 -0.0189,0.0274 -0.0327,0.0763 -0.0375,0.16126 -0.004,0.0541 -0.021,0.0869 -0.0412,0.10124 -0.008,0.005 -0.02,0.007 -0.03,0.007 -0.10613,-0.002 -0.30317,-0.23626 -0.39,-0.3075 0.0253,-0.13615 -0.006,-0.20674 -0.0675,-0.24374 -0.0813,-0.047 -0.21395,-0.0448 -0.3375,-0.075 -0.005,0.004 -0.0133,0.008 -0.0188,0.0113 -0.002,10e-4 -0.006,0.003 -0.007,0.004 -0.22545,0.0981 -0.54541,-0.43511 -0.8775,-0.12 -0.33515,0.29959 -0.87733,-0.10264 -1.23,0.25124 -0.18525,0.0996 -0.40841,0.26097 -0.5925,0.12376 0.10827,-0.2278 0.38311,-0.17956 0.5775,-0.27376 0.12289,-0.027 0.21676,-0.0776 0.2625,-0.14624 0.003,-0.005 0.008,-0.0133 0.0113,-0.0188 0.008,-0.0165 0.016,-0.0378 0.0188,-0.0562 0.006,-0.0484 -0.007,-0.10424 -0.0413,-0.165 -0.20371,0.0342 -0.40915,0.05 -0.61125,0.0937 0.002,-0.22916 -0.26361,-0.35438 -0.3,-0.58874 -0.0446,-0.0457 -0.0675,-0.0845 -0.075,-0.1125 -0.001,-0.003 -0.003,-0.008 -0.004,-0.0113 -8e-5,-10e-4 3e-5,-0.003 0,-0.004 -3e-5,-10e-4 -2e-5,-0.003 0,-0.004 2e-5,-10e-4 -6e-5,-0.003 0,-0.004 6e-5,0 -1e-4,-0.003 0,-0.004 1e-4,0 0.004,-0.003 0.004,-0.004 0,0 0,-0.003 0,-0.004 0,0 0,-0.003 0,-0.004 0.001,-0.002 0.003,-0.006 0.004,-0.007 0,0 0.003,-0.003 0.004,-0.004 0.065,-0.0865 0.40711,-0.0506 0.49125,-0.17626 0.002,-0.003 0.006,-0.008 0.007,-0.0113 0.001,-0.002 0.003,-0.006 0.004,-0.007 0.001,-0.002 0.003,-0.006 0.004,-0.007 0.001,-0.003 -0.001,-0.009 0,-0.0113 0,-0.003 0.003,-0.008 0.004,-0.0113 0,-0.002 -1.1e-4,-0.006 0,-0.007 -0.25555,-0.0213 -0.50822,-0.0522 -0.76124,-0.0937 -0.046,0.0238 -0.0862,0.035 -0.11626,0.0375 -0.009,0 -0.0219,10e-4 -0.03,0 -0.002,0 -0.006,0 -0.007,0 -0.002,0 -0.006,-0.003 -0.007,-0.004 -0.002,0 -0.006,-0.003 -0.007,-0.004 -0.001,0 -0.003,0 -0.004,0 -0.001,0 -0.003,-0.003 -0.004,-0.004 -0.001,-10e-4 -0.006,-0.003 -0.007,-0.004 -10e-4,0 -0.003,-0.003 -0.004,-0.004 -0.001,0 -0.003,-0.003 -0.004,-0.004 -0.001,-10e-4 -0.003,-0.003 -0.004,-0.004 -0.091,-0.10244 -0.0243,-0.44402 -0.15375,-0.61126 -0.0252,-0.0316 -0.0588,-0.0589 -0.10125,-0.075 -0.19242,-0.0152 -0.27644,-0.0499 -0.3,-0.0975 -0.0421,-0.0976 0.15226,-0.25279 0.16125,-0.4275 0.10322,-0.13861 0.30464,-0.26878 0.38625,-0.42749 0.16588,-0.0983 0.13738,-0.37222 0.17625,-0.555 0.0801,-0.21234 0.1951,-0.38562 -0.015,-0.555 0.0832,-0.0847 0.17925,-0.16421 0.21375,-0.2325 0.003,-0.005 0.006,-0.0135 0.007,-0.0187 0.002,-0.005 0.003,-0.0137 0.004,-0.0188 0,-0.004 0,-0.011 0,-0.015 -10e-4,-0.008 -0.004,-0.0186 -0.007,-0.0263 -0.003,-0.007 -0.009,-0.0161 -0.015,-0.0225 -0.002,-0.002 -0.006,-0.006 -0.007,-0.008 -0.026,-0.0235 -0.0695,-0.0471 -0.135,-0.0675 -0.007,0.004 -0.0158,0.008 -0.0225,0.0112 -0.004,0.002 -0.0112,0.003 -0.015,0.004 -0.003,8.4e-4 -0.008,0.003 -0.0113,0.004 -0.003,6e-4 -0.008,0.003 -0.0113,0.004 -0.004,4.8e-4 -0.0112,-9e-5 -0.015,0 -0.17819,6e-4 -0.33839,-0.3546 -0.22124,-0.47625 0.001,-6e-4 0.003,-0.003 0.004,-0.004 0.001,-6e-4 0.003,-0.003 0.004,-0.004 0.001,-10e-4 0.006,-0.003 0.007,-0.004 0.001,-4.8e-4 0.003,-0.003 0.004,-0.004 0.002,-9.6e-4 0.006,-0.003 0.007,-0.004 0.002,-9.6e-4 0.006,-0.003 0.007,-0.004 0.007,-0.003 0.018,-0.009 0.0263,-0.0112 0.009,-0.002 0.0228,-0.003 0.0337,-0.004 0.01,-6e-4 0.0227,-7.2e-4 0.0337,0 0,-0.007 -0.002,-0.0161 -0.004,-0.0225 0,-0.002 -0.003,-0.006 -0.004,-0.008 -0.001,-0.002 -0.003,-0.006 -0.004,-0.007 -10e-4,-0.002 -0.003,-0.006 -0.004,-0.008 -0.0744,-0.12316 -0.41632,-0.0507 -0.49125,-0.0675 -0.003,-7.2e-4 -0.006,-0.003 -0.007,-0.004 0,-1.2e-4 -0.003,2.4e-4 -0.004,0 0,-2.4e-4 0,-0.004 0,-0.004 -6e-5,-2.4e-4 2e-5,-0.003 0,-0.004 3e-5,-2.4e-4 -7e-5,-0.003 0,-0.004 0,-6e-4 0,-0.003 0,-0.004 0.0115,-0.0169 0.0536,-0.0476 0.135,-0.0937 0.10275,-0.14592 0.27507,-0.16074 0.33374,-0.225 0,-6e-4 0.003,-0.003 0.004,-0.004 0.002,-0.003 0.006,-0.008 0.007,-0.0113 10e-4,-10e-4 0.003,-0.006 0.004,-0.008 0,-8.4e-4 0,-0.003 0,-0.004 0,-0.002 0.003,-0.006 0.004,-0.007 0,-0.003 0,-0.009 0,-0.0112 0,-0.003 1.1e-4,-0.008 0,-0.0113 0,-0.005 0.001,-0.0133 0,-0.0187 -0.28507,-0.19266 -0.2165,-0.56465 -0.14625,-0.84375 0.0435,-0.21969 0.19701,-0.38356 0.27375,-0.6 0.0601,-0.0732 0.0831,-0.24519 0.135,-0.33 0.009,-0.0145 0.0224,-0.0294 0.0337,-0.0375 0.007,-0.005 0.0181,-0.01 0.0263,-0.0112 0.007,-9.6e-4 0.0181,0.002 0.0263,0.004 0.0262,0.007 0.0597,0.0267 0.0975,0.0675 0.32361,0.15252 0.55423,0.41458 0.79125,0.675 0.10489,0.003 0.18459,0.0444 0.22875,0.105 0.058,0.083 0.0554,0.20521 -0.0225,0.33 0.10591,0.26098 0.36012,0.21228 0.5475,0.135 0.0759,0.0204 0.11306,-10e-4 0.135,-0.0375 0.033,-0.0585 0.0292,-0.1627 0.06,-0.225 0.003,-0.006 0.008,-0.0139 0.0113,-0.0187 0.004,-0.005 0.0103,-0.0112 0.015,-0.015 0.0232,-0.0172 0.0575,-0.023 0.10874,-0.0112 0.15926,-0.13328 0.22858,-0.27086 0.3,-0.43875 -0.0733,-0.007 -0.11431,-0.0154 -0.13124,-0.0263 -0.001,-4.8e-4 -0.003,-0.003 -0.004,-0.004 -10e-4,-9.6e-4 -0.003,-0.003 -0.004,-0.004 0,-4.8e-4 0,-0.003 0,-0.004 -3e-5,-4.8e-4 -6e-5,-0.003 0,-0.004 0,-4.8e-4 0,-0.003 0,-0.004 0.001,-0.002 0.005,-0.005 0.007,-0.008 0.001,-4.8e-4 0.003,-0.003 0.004,-0.004 0.004,-0.003 0.0124,-0.008 0.0187,-0.0112 0.0842,-0.0403 0.30637,-0.0846 0.3825,-0.09 0.34498,0.0418 0.29465,-0.20678 0.55125,-0.33 0.0616,-0.0501 0.0842,-0.0879 0.0825,-0.11625 -0.002,-0.0117 -0.01,-0.0247 -0.0188,-0.0337 -0.0541,-0.0507 -0.2109,-0.0676 -0.255,-0.1125 -0.001,-0.001 -0.003,-0.006 -0.004,-0.007 0,-7.2e-4 -0.003,-0.003 -0.004,-0.004 -0.001,-0.002 -0.003,-0.006 -0.004,-0.008 0,-0.003 0,-0.008 0,-0.0113 0.002,-0.0124 0.0131,-0.0282 0.03,-0.045 0.0938,-0.17112 0.31242,-0.26597 0.51,-0.24375 0.2286,0.20111 0.57419,-0.11625 0.68626,-0.27375 0.15771,0.0597 0.29053,0.0576 0.37874,-0.0225 0.007,-0.006 0.0164,-0.0154 0.0225,-0.0225 0.0223,-0.0267 0.0415,-0.0615 0.0563,-0.10125 0.13423,-0.12549 0.59889,-0.15602 0.41624,-0.3825 -0.0281,-0.0328 -0.0405,-0.0599 -0.0412,-0.0788 10e-6,-4.8e-4 -5e-5,-0.003 0,-0.004 5e-5,-4.8e-4 0.004,-0.003 0.004,-0.004 1.1e-4,-4.8e-4 0,-0.003 0,-0.004 0,-4.8e-4 0,-0.003 0,-0.004 0,-8.4e-4 0.003,-0.003 0.004,-0.004 0,-3.6e-4 0,-0.003 0,-0.004 0.003,-0.004 0.01,-0.009 0.015,-0.0113 0.0887,-0.0405 0.40962,0.0875 0.39374,0.2775 -10e-4,0.006 -0.002,0.016 -0.004,0.0225 -0.001,0.005 -0.006,0.0132 -0.007,0.0187 0.2173,-0.0483 0.41817,0.23362 0.60375,0.11625 -0.0509,-0.10123 -0.0501,-0.23063 0.0225,-0.30375 0.0483,-0.0466 0.12952,-0.0735 0.24375,-0.0525 0.0558,-0.005 0.0849,-0.0227 0.0975,-0.0487 0.0457,-0.10885 -0.18775,-0.35767 -0.0975,-0.48375 -0.0154,-0.0668 -0.004,-0.11056 0.0187,-0.13875 0.0572,-0.0645 0.1931,-0.0492 0.255,-0.075 0.0163,-0.007 0.0278,-0.0207 0.03,-0.0375 0.001,-0.0206 -0.01,-0.0521 -0.0375,-0.0937 -0.0736,-0.14927 -0.003,-0.35525 -0.13125,-0.52125 -0.0298,-0.0864 -0.0127,-0.14527 0.0263,-0.1875 0.0871,-0.0903 0.27879,-0.11561 0.32625,-0.22125 0.009,-0.0103 0.0181,-0.0168 0.0263,-0.0225 0.004,-0.003 0.011,-0.006 0.015,-0.008 0.004,-10e-4 0.011,-0.003 0.015,-0.004 0.003,-1.2e-4 0.008,-3.6e-4 0.0113,0 0.004,7.2e-4 0.0112,0.002 0.015,0.004 0.0104,0.004 0.0233,0.0133 0.0337,0.0225 0.0841,0.0766 0.17648,0.27881 0.34876,0.22875 0.14029,-0.224 0.43178,-0.287 0.6825,-0.31125 z"
       id="path17408" />
    <path
       inkscape:connector-curvature="0"
       style="fill:#808080;fill-opacity:1;fill-rule:evenodd;stroke:#ffffff;stroke-width:0.36;stroke-linecap:butt;stroke-linejoin:miter;stroke-miterlimit:4;stroke-dasharray:none;stroke-opacity:1"
       d="m 239.23797,850.42257 c -0.25578,0.0227 -0.56317,0.0808 -0.708,0.312 -0.25058,0.0728 -0.32743,-0.38434 -0.4645,-0.21951 -0.0698,0.15542 -0.44883,0.13063 -0.3534,0.40695 0.1278,0.166 0.0603,0.37323 0.1339,0.5225 0.17718,0.2662 -0.34321,0.0159 -0.26741,0.34473 -0.11325,0.15821 0.28431,0.50578 -0.001,0.53343 -0.29241,-0.0537 -0.35142,0.18466 -0.26689,0.35295 -0.18557,0.11736 -0.38354,-0.16353 -0.60085,-0.11522 0.0964,-0.28429 -0.57484,-0.45277 -0.36357,-0.20583 0.18266,0.22647 -0.28334,0.2573 -0.41757,0.38279 -0.0726,0.19561 -0.24088,0.22874 -0.45796,0.14653 -0.11207,0.1575 -0.45753,0.47282 -0.68613,0.27171 -0.19758,-0.0222 -0.4173,0.0743 -0.51106,0.24539 -0.1664,0.16554 0.4754,0.0912 0.17237,0.3378 -0.2566,0.12323 -0.20554,0.3731 -0.55051,0.3313 -0.12821,0.009 -0.66426,0.12083 -0.27315,0.15648 -0.0714,0.16789 -0.13982,0.30319 -0.29909,0.43647 -0.2735,-0.0624 -0.0551,0.38232 -0.33268,0.30753 -0.18737,0.0773 -0.4383,0.12898 -0.54422,-0.132 0.13653,-0.21882 0.0425,-0.42931 -0.20613,-0.43551 -0.23701,-0.26043 -0.47005,-0.52225 -0.79367,-0.67476 -0.21977,-0.23723 -0.21518,0.17983 -0.31922,0.30652 -0.0767,0.21644 -0.22784,0.38106 -0.2713,0.60076 -0.0703,0.2791 -0.14108,0.65199 0.14399,0.84465 0.0303,0.14001 -0.2184,0.11047 -0.35127,0.29914 -0.45302,0.25673 0.36098,-0.0396 0.3816,0.2232 -0.3538,-0.0217 -0.0759,0.64306 0.168,0.492 0.3223,0.10032 0.10636,0.23868 -0.06,0.408 0.21011,0.16938 0.0964,0.34407 0.0162,0.55641 -0.0389,0.18278 -0.009,0.45774 -0.17504,0.55607 -0.0816,0.15872 -0.28457,0.28646 -0.38779,0.42508 -0.0135,0.26308 -0.44778,0.47998 0.13863,0.52643 0.35062,0.13248 0.0285,0.89243 0.44884,0.67505 0.25303,0.0415 0.5076,0.0717 0.76315,0.0929 -0.0132,0.25824 -0.7595,0.067 -0.44223,0.39211 0.0364,0.23438 0.30062,0.36273 0.29824,0.59189 0.20211,-0.0437 0.40829,-0.0618 0.612,-0.096 0.11366,0.19944 -0.0125,0.33505 -0.25081,0.38736 -0.19439,0.0942 -0.46893,0.0449 -0.5772,0.27264 0.18409,0.13722 0.40728,-0.0243 0.59254,-0.12395 0.35267,-0.35388 0.89504,0.0484 1.23019,-0.25119 0.34558,-0.32791 0.67574,0.26573 0.90241,0.10746 0.21965,0.0536 0.46585,-10e-4 0.40687,0.31569 0.11825,0.097 0.43611,0.50243 0.45863,0.20121 0.0213,-0.37487 0.21599,-0.0366 0.26255,-0.3328 0.0876,-0.17942 0.13312,-0.48241 0.27482,-0.57641 0.3059,0.13511 0.65128,0.17038 0.95001,0.30777 0.28862,0.20822 0.67278,0.20922 1.00599,0.31622 0.31554,-0.0529 0.53832,0.21157 0.84502,0.23405 0.18725,0.10694 0.27954,0.3869 0.41677,0.0814 0.25899,0.12578 0.32734,-0.2783 0.56755,-0.0468 0.38196,0.14759 0.23008,-0.0454 0.18374,-0.2981 0.0688,-0.19021 -0.20794,-0.53284 0.005,-0.61871 0.3943,0.002 0.7767,0.0626 1.00182,-0.29477 0.20128,-0.12168 0.26648,-0.34707 0.47304,-0.48027 0.13154,-0.22383 0.183,-0.34636 0.4742,-0.19794 0.1756,-0.17191 0.2878,-0.15474 0.50869,-0.0828 0.23814,-0.0868 0.52185,-0.22137 0.73607,-0.006 0.42092,0.19477 0.59323,0.73877 1.07693,0.81909 0.37718,0.0461 1.20511,0.69405 0.971,-0.10494 0.11641,-0.15849 0.056,-0.45704 -0.11507,-0.59367 0.14628,-0.13748 0.13876,-0.49547 -0.13227,-0.44997 -0.20527,0.10327 -0.36016,0.23883 -0.42609,-0.006 -0.12319,0.29469 -0.30652,-0.0542 -0.30644,-0.14818 -0.36212,-0.1935 0.26218,-0.5704 -0.16013,-0.60206 0.13306,0.22087 -0.28892,0.39673 -0.336,0.132 -0.0614,-0.22136 0.16917,-0.41775 0.048,-0.576 0.0995,-0.22869 0.12472,-0.45821 0.0172,-0.68921 -0.0841,-0.22426 -0.0351,-0.43228 0.0956,-0.62621 0.11398,-0.23166 0.23802,-0.46072 0.20525,-0.72605 0.0464,-0.32627 0.0951,-0.65197 0.22201,-0.95853 -0.22749,0.0112 -0.23222,-0.21891 -0.504,-0.204 0.0758,-0.37292 0.2364,-0.72344 0.276,-1.104 -0.21776,-0.0915 -0.41207,0.0139 -0.61451,0.0336 -0.28639,0.0335 -0.34713,-0.23228 -0.58549,-0.30958 0.0102,-0.23435 -0.33356,-0.29731 -0.12227,-0.5365 0.08,-0.18305 0.31198,-0.42124 0.008,-0.5317 -0.31579,-0.19551 -0.68367,-0.31945 -1.05909,-0.2758 -0.0763,0.15742 0.0635,0.41941 0.0569,0.62026 0.0341,0.1725 -0.12518,0.57602 -0.30804,0.31088 -0.41937,-0.31438 -0.84644,-0.6182 -1.2755,-0.91914 -0.0357,-0.30308 0.0877,-0.64592 -0.096,-0.912 -0.005,-0.22735 0.0269,-0.47682 -0.24217,-0.55952 -0.105,-0.0752 -0.22307,-0.13031 -0.33383,-0.19648 z"
       id="path22696" />
    <path
       style="color:#000000;font-style:normal;font-variant:normal;font-weight:normal;font-stretch:normal;font-size:medium;line-height:normal;font-family:Sans;-inkscape-font-specification:Sans;text-indent:0;text-align:start;text-decoration:none;text-decoration-line:none;letter-spacing:normal;word-spacing:normal;text-transform:none;writing-mode:lr-tb;direction:ltr;baseline-shift:baseline;text-anchor:start;display:inline;overflow:visible;visibility:visible;fill:#008198;fill-opacity:1;fill-rule:nonzero;stroke:none;stroke-width:10;marker:none;enable-background:accumulate"
       d="m 15,782.36218 v 209.99976 l 220,2.4e-4 50,-45 v -165 z m 15,195 v -180 h 240 v 150 h -35 v 30 z"
       id="rect4454"
       inkscape:connector-curvature="0"
       sodipodi:nodetypes="ccccccccccccc" />
  </g>
</svg>
