<?xml version="1.0" encoding="UTF-8" standalone="no"?>
<svg
   xmlns:dc="http://purl.org/dc/elements/1.1/"
   xmlns:cc="http://creativecommons.org/ns#"
   xmlns:rdf="http://www.w3.org/1999/02/22-rdf-syntax-ns#"
   xmlns:svg="http://www.w3.org/2000/svg"
   xmlns="http://www.w3.org/2000/svg"
   xmlns:sodipodi="http://sodipodi.sourceforge.net/DTD/sodipodi-0.dtd"
   xmlns:inkscape="http://www.inkscape.org/namespaces/inkscape"
   width="200"
   height="320"
   id="svg3775"
   version="1.1"
   inkscape:version="1.0.2-2 (e86c870879, 2021-01-15)"
   sodipodi:docname="chapter.svg"
   inkscape:export-filename="C:\Private\gduffner\dev\gitprojekte\wu-bib-icons\png\leganto_100x160\chapter.png"
   inkscape:export-xdpi="48"
   inkscape:export-ydpi="48">
  <defs
     id="defs3777" />
  <sodipodi:namedview
     id="base"
     pagecolor="#ffffff"
     bordercolor="#666666"
     borderopacity="1.0"
     inkscape:pageopacity="0.0"
     inkscape:pageshadow="2"
     inkscape:zoom="2"
     inkscape:cx="73.274801"
     inkscape:cy="154.30277"
     inkscape:document-units="px"
     inkscape:current-layer="layer1"
     showgrid="true"
     inkscape:window-width="1920"
     inkscape:window-height="1013"
     inkscape:window-x="-9"
     inkscape:window-y="-9"
     inkscape:window-maximized="1"
     guidecolor="#f5833f"
     guideopacity="0.49803922"
     inkscape:document-rotation="0">
    <inkscape:grid
       type="xygrid"
       id="grid3783"
       empspacing="10"
       visible="true"
       enabled="true"
       snapvisiblegridlinesonly="true"
       spacingx="5"
       spacingy="5"
       originx="0"
       originy="0" />
    <sodipodi:guide
       position="0,180"
       orientation="0,190"
       id="guide3787" />
    <sodipodi:guide
       position="10,190"
       orientation="190,0"
       id="guide3791" />
    <sodipodi:guide
       position="180,190"
       orientation="190,0"
       id="guide3795" />
    <sodipodi:guide
       position="190,10"
       orientation="0,-190"
       id="guide3799" />
    <sodipodi:guide
       position="100,325"
       orientation="189.80829,0"
       id="guide5285" />
    <sodipodi:guide
       position="0,95"
       orientation="0,190"
       id="guide5289" />
  </sodipodi:namedview>
  <metadata
     id="metadata3780">
    <rdf:RDF>
      <cc:Work
         rdf:about="">
        <dc:format>image/svg+xml</dc:format>
        <dc:type
           rdf:resource="http://purl.org/dc/dcmitype/StillImage" />
        <dc:title />
      </cc:Work>
    </rdf:RDF>
  </metadata>
  <g
     inkscape:label="Ebene 1"
     inkscape:groupmode="layer"
     id="layer1"
     transform="translate(0,-862.36218)">
    <path
       style="fill:#008198;fill-opacity:1;stroke:none"
       d="m 5,922.36267 v 144.50043 h 72.34375 c 0,0 5.9202,10.4991 22.65625,10.4991 16.73605,0 22.65625,-10.4991 22.65625,-10.4991 H 195 V 922.36257 l -10,2.6e-4 v 134.43807 l -67.6875,-3e-4 c 0,0 -5.39125,10.5616 -17.3125,10.5616 -11.92125,0 -17.3125,-10.5616 -17.3125,-10.5616 H 15 V 922.36267 Z"
       id="rect2991"
       inkscape:connector-curvature="0"
       sodipodi:nodetypes="cccsccccccscccc" />
    <path
       style="fill:#ffffff;fill-opacity:1;stroke:none"
       d="m 15,922.36267 v 134.43793 l 67.6875,10e-5 c 0,0 5.39125,10.5625 17.3125,10.5625 11.92125,0 17.3125,-10.5625 17.3125,-10.5625 l 67.6875,2e-4 V 922.36283 l -10,-2.3e-4 v 125.0005 c 0,0 -44.98631,0.2504 -45,-10e-5 -13.46195,0 -24.59375,1.7157 -24.59375,9.9999 H 100 94.59375 c 0,-8.2842 -11.1318,-9.9999 -24.59375,-9.9999 -0.0137,0.2505 -45,10e-5 -45,10e-5 V 922.36267 Z"
       id="path3758"
       inkscape:connector-curvature="0"
       sodipodi:nodetypes="cccsccccccccccccc" />
    <path
       style="color:#000000;display:inline;overflow:visible;visibility:visible;fill:#808080;fill-opacity:1;stroke:none;stroke-width:10;marker:none;enable-background:accumulate"
       d="m 25,912.36223 v 135.00087 c 0,0 40.20506,0.2503 40.21875,-2e-4 13.46195,0 29.375,1.7158 29.375,10 H 100 h 5.40625 c 0,-8.2842 11.1318,-10.0002 24.59375,-10.0002 0.0137,0.2505 45,4e-4 45,4e-4 V 912.3623 l -45,-1.2e-4 c -16.45349,-5e-5 -30,6.71573 -30,15 0,-8.28427 -10,-14.99933 -30,-14.9995 z"
       id="rect2989"
       inkscape:connector-curvature="0"
       sodipodi:nodetypes="cccccccccscsc" />
    <path
       sodipodi:nodetypes="ccccccscc"
       inkscape:connector-curvature="0"
       id="path3769"
       d="m 65,922.34926 -30,1.6e-4 v 115.00078 c 0,0 34.98596,0.2633 35,0.013 13.80712,0 25,1.7028 25,9.987 v 0 -110.00086 c 0,-8.28426 -8.12463,-14.99999 -25,-14.99999 z"
       style="color:#000000;display:inline;overflow:visible;visibility:visible;fill:#ffffff;fill-opacity:1;stroke:none;stroke-width:10;marker:none;enable-background:accumulate" />
    <path
       style="color:#000000;display:inline;overflow:visible;visibility:visible;fill:#ffffff;fill-opacity:1;stroke:none;stroke-width:10;marker:none;enable-background:accumulate"
       d="m 125,922.34926 40,3e-5 v 115.00081 c 0,0 -34.98596,0.2633 -35,0.013 -13.80712,0 -25,1.7028 -25,9.987 v 0 -110.0008 c 0,-8.28427 8.12463,-14.99998 25,-14.99998 z"
       id="path3777"
       inkscape:connector-curvature="0"
       sodipodi:nodetypes="ccccccscc" />
    <g
       style="font-style:normal;font-variant:normal;font-weight:bold;font-stretch:normal;font-size:56px;line-height:125%;font-family:Verdana;-inkscape-font-specification:'Verdana Bold';letter-spacing:0px;word-spacing:0px;fill:#808080;fill-opacity:1;stroke:none"
       id="text3027"
       transform="translate(0,55.00031)">
      <path
         d="M 80,942.36187 H 50 v -4.99985 l 10,6.9e-4 v -25.00034 l -10,-5.7e-4 v -4.99962 c 5,0 10,0 10,-5 l 10,-10e-5 v 35.00005 l 10,-1.1e-4 z"
         id="path3051"
         inkscape:connector-curvature="0"
         sodipodi:nodetypes="cccccccccccc" />
    </g>
    <rect
       style="color:#000000;display:inline;overflow:visible;visibility:visible;fill:#808080;fill-opacity:1;stroke:none;stroke-width:10.8012;marker:none;enable-background:accumulate"
       id="rect3799"
       width="35"
       height="10"
       x="115"
       y="962.36267" />
    <rect
       y="982.36267"
       x="115"
       height="10"
       width="35"
       id="rect3805"
       style="color:#000000;display:inline;overflow:visible;visibility:visible;fill:#808080;fill-opacity:1;stroke:none;stroke-width:10.8012;marker:none;enable-background:accumulate" />
    <rect
       style="color:#000000;display:inline;overflow:visible;visibility:visible;fill:#808080;fill-opacity:1;stroke:none;stroke-width:10.8012;marker:none;enable-background:accumulate"
       id="rect3807"
       width="35"
       height="10"
       x="115"
       y="1002.3627" />
    <rect
       style="color:#000000;display:inline;overflow:visible;visibility:visible;fill:#808080;fill-opacity:1;stroke:none;stroke-width:10.8012;marker:none;enable-background:accumulate"
       id="rect3799-1"
       width="35"
       height="10"
       x="115"
       y="942.36267" />
  </g>
</svg>
